<?xml version="1.0" encoding="UTF-8"?>
<!DOCTYPE svg PUBLIC "-//W3C//DTD SVG 1.1//EN" "http://www.w3.org/Graphics/SVG/1.1/DTD/svg11.dtd">
<!-- Creator: CorelDRAW -->
<svg xmlns="http://www.w3.org/2000/svg" xml:space="preserve" width="652px" height="160px" version="1.1" style="shape-rendering:geometricPrecision; text-rendering:geometricPrecision; image-rendering:optimizeQuality; fill-rule:evenodd; clip-rule:evenodd"
viewBox="0 0 1878.96 461.27"
 xmlns:xlink="http://www.w3.org/1999/xlink"
 xmlns:xodm="http://www.corel.com/coreldraw/odm/2003">
 <defs>
  <style type="text/css">
   <![CDATA[
    .fil0 {fill:#FEFEFE}
    .fil1 {fill:#FEFEFE;fill-rule:nonzero}
   ]]>
  </style>
 </defs>
 <g id="Layer_x0020_1">
  <metadata id="CorelCorpID_0Corel-Layer"/>
  <g id="_2810125968192">
   <path class="fil0" d="M73.15 230.64c0,-86.98 70.51,-157.49 157.49,-157.49 86.97,0 157.49,70.51 157.49,157.49 0,86.97 -70.52,157.49 -157.49,157.49 -86.98,0 -157.49,-70.52 -157.49,-157.49zm-11.1 0c0,93.1 75.48,168.58 168.59,168.58 93.1,0 168.58,-75.48 168.58,-168.58 0,-93.11 -75.48,-168.59 -168.58,-168.59 -93.11,0 -168.59,75.48 -168.59,168.59z"/>
   <path class="fil0" d="M9.83 230.64c0,-121.95 98.86,-220.81 220.81,-220.81 121.94,0 220.8,98.86 220.8,220.81 0,121.94 -98.86,220.8 -220.8,220.8 -121.95,0 -220.81,-98.86 -220.81,-220.8zm220.81 -230.64c-127.38,0 -230.64,103.26 -230.64,230.64 0,127.37 103.26,230.63 230.64,230.63 127.37,0 230.63,-103.26 230.63,-230.63 0,-127.38 -103.26,-230.64 -230.63,-230.64z"/>
  </g>
  <path class="fil0" d="M368.98 348.42l11.56 -4.2 11.55 -4.21 -2.13 12.11 -2.14 12.11 -9.42 -7.9 -9.42 -7.91zm4.86 -8.41l11.55 4.21 11.56 4.2 -9.42 7.91 -9.42 7.9 -2.14 -12.11 -2.13 -12.11zm9.12 -3.32l6.15 10.65 6.15 10.65 -12.3 0 -12.29 0 6.15 -10.65 6.14 -10.65z"/>
  <path class="fil0" d="M60.9 348.42l11.55 -4.2 11.56 -4.21 -2.13 12.11 -2.14 12.11 -9.42 -7.9 -9.42 -7.91zm4.86 -8.41l11.55 4.21 11.56 4.2 -9.42 7.91 -9.42 7.9 -2.14 -12.11 -2.13 -12.11zm9.12 -3.32l6.15 10.65 6.15 10.65 -12.3 0 -12.29 0 6.14 -10.65 6.15 -10.65z"/>
  <path class="fil1" d="M60.91 297.9c-1.88,-4.67 -5.78,-6.23 -9.02,-4.93 -2.76,1.11 -3.75,3.21 -3.75,6l0 2.92c-0.02,1.96 0.08,3.41 -1.12,3.9 -1.11,0.44 -2.15,-0.25 -2.77,-1.78 -0.53,-1.32 -0.5,-2.89 -0.09,-4.56l-3.79 -1.19c-0.88,2.31 -0.86,4.94 0.08,7.28 1.64,4.08 5.37,5.92 8.61,4.61 2.84,-1.14 3.75,-3.73 3.78,-6.08l0.02 -2.97c0.04,-1.99 -0.02,-3.26 1.21,-3.75 1.17,-0.47 2.25,0.14 2.98,1.96 0.69,1.71 0.77,3.91 0.1,5.78l3.81 1.18c1.16,-2.76 1.01,-5.73 -0.05,-8.37zm-7.21 -20.6l-3.07 -13.14 -3.9 0.91 1.99 8.52 -4.72 1.1 -1.63 -6.98 -3.87 0.9 1.63 6.98 -4.12 0.96 -1.91 -8.2 -3.9 0.91 2.99 12.83 20.51 -4.79zm-5.03 -27.55l-0.36 -4.73 -5.63 0.43 -3.41 -2.2 8.47 -5.8 -0.4 -5.18 -12.05 8.46 -8.85 -5.7 0.39 5.21 9.08 5.6 0.01 0.12 -8.6 0.66 0.36 4.73 20.99 -1.6zm0.35 -37.75c0.43,-5.67 -3.4,-9.84 -10.26,-10.37 -6.82,-0.52 -11.08,3.05 -11.51,8.71 -0.43,5.67 3.2,9.83 10.06,10.36 6.86,0.52 11.28,-3.03 11.71,-8.7zm-4.09 -0.31c-0.22,2.87 -3.03,4.47 -7.25,4.14 -4.18,-0.31 -6.56,-2.31 -6.34,-5.18 0.22,-2.86 2.87,-4.47 7.05,-4.15 4.22,0.32 6.76,2.32 6.54,5.19zm7.54 -23.26l3.52 -12.6 -3.86 -1.08 -2.24 8.03 -16.42 -4.59 -1.28 4.57 20.28 5.67zm0.4 -34.52c-1.67,-1.39 -3.68,-2.91 -5.5,-4.29l0.06 -0.12c2.22,0.4 4.73,0.9 6.88,1.23l1.96 0.36 -1.85 4.09 -1.55 -1.27zm6.57 11.34l2 -4.42 -4.03 -3.24 2.65 -5.85 5.09 0.89 2.08 -4.59 -21.9 -2.68 -2.36 5.21 16.47 14.68zm13.91 -28.26l2.55 -4 -7.41 -4.72 3.89 -6.13 7.42 4.71 2.56 -4.03 -17.77 -11.29 -2.56 4.03 6.84 4.35 -3.9 6.13 -6.84 -4.35 -2.55 4.01 17.77 11.29zm33.3 -41.01l3.61 -3.13 -11.19 -12.87 4.36 -3.79 -2.63 -3.02 -12.33 10.72 2.63 3.02 4.36 -3.79 11.19 12.86zm18.89 -15.07l3.87 -2.75 -12.23 -17.14 -3.87 2.75 12.23 17.14zm16.92 -10.75l4.06 -2.05 -3.35 -6.66c-1.12,-2.22 -2.75,-4.59 -4.03,-6.54l0.12 -0.06c1.32,1.18 2.71,2.36 4.01,3.29l9.48 6.83 4.44 -2.24 -9.48 -18.8 -4.06 2.05 3.36 6.66c1.12,2.22 2.77,4.64 3.99,6.56l-0.11 0.06c-1.32,-1.18 -2.68,-2.38 -3.99,-3.31l-9.48 -6.83 -4.44 2.24 9.48 18.8zm38.13 -15.02c2.82,-0.82 4.96,-2.62 5.96,-4.39l-2.71 -9.3 -7.38 2.14 1.08 3.72 3.35 -0.97 1.01 3.47c-0.38,0.55 -1.15,1.01 -1.99,1.25 -3.78,1.1 -6.38,-0.77 -7.58,-4.92 -1.19,-4.06 0.3,-7.15 3.44,-8.06 1.73,-0.51 2.95,-0.26 4.23,0.35l1.59 -3.46c-1.75,-1.04 -4.21,-1.63 -7.12,-0.79 -5.4,1.57 -8.73,6.78 -6.78,13.48 1.97,6.79 7.35,9.09 12.9,7.48zm30.24 -5.98c2.92,-0.35 5.32,-1.78 6.59,-3.36l-1.15 -9.62 -7.63 0.92 0.46 3.84 3.46 -0.41 0.43 3.59c-0.46,0.48 -1.3,0.8 -2.17,0.91 -3.91,0.47 -6.16,-1.8 -6.68,-6.09 -0.5,-4.2 1.47,-7.01 4.71,-7.4 1.79,-0.21 2.95,0.23 4.12,1.03l2.13 -3.14c-1.56,-1.31 -3.89,-2.3 -6.9,-1.94 -5.58,0.67 -9.71,5.26 -8.88,12.19 0.84,7.02 5.77,10.17 11.51,9.48zm21.55 -1.48l4.74 0.15 0.69 -21.04 -4.74 -0.15 -0.69 21.04zm36.55 4.08l4.63 1.07 4.73 -20.52 -4.62 -1.06 -4.74 20.51zm19.4 5.1l12.2 4.71 1.44 -3.74 -7.77 -3 6.13 -15.9 -4.43 -1.71 -7.57 19.64zm25.08 10.21l3.68 2.15 3.89 -6.66c1.04,-1.79 2.52,-5.03 3.34,-6.95l0.11 0.07 -1.37 5.62 -1.52 8.43 2.4 1.4 6.62 -5.45 4.28 -3.93 0.11 0.06c-1.27,1.66 -3.39,4.53 -4.43,6.31l-3.89 6.67 3.76 2.2 10.61 -18.19 -4.57 -2.67 -7.56 6.43c-1,0.88 -1.92,1.8 -2.93,2.78l-0.12 -0.07c0.35,-1.36 0.68,-2.63 0.95,-3.93l1.82 -9.78 -4.57 -2.67 -10.61 18.18zm35.48 24.5c4.12,3.53 8.26,3.12 12.73,-2.11l7.52 -8.78 -3.48 -2.98 -7.84 9.15c-2.56,2.99 -4.47,3.14 -6.26,1.61 -1.79,-1.54 -1.89,-3.41 0.67,-6.4l7.84 -9.15 -3.63 -3.11 -7.52 8.78c-4.48,5.23 -4.18,9.44 -0.03,12.99zm27.87 28.93l7.84 10.99 3.26 -2.33 -5.08 -7.12 3.94 -2.81 4.17 5.83 3.23 -2.3 -4.16 -5.84 3.44 -2.46 4.89 6.86 3.26 -2.32 -7.65 -10.73 -17.14 12.23zm15.16 23.55l2.13 4.24 5.05 -2.54 3.99 0.73 -5.62 8.59 2.34 4.64 7.92 -12.42 10.36 1.9 -2.36 -4.67 -10.52 -1.71 -0.06 -0.12 7.7 -3.88 -2.13 -4.24 -18.8 9.48zm13.86 35.1c1.53,5.47 6.56,8.09 13.18,6.24 6.59,-1.84 9.38,-6.64 7.85,-12.12 -1.53,-5.47 -6.37,-8.14 -12.99,-6.29 -6.63,1.85 -9.57,6.69 -8.04,12.17zm3.95 -1.11c-0.77,-2.77 1.33,-5.23 5.4,-6.37 4.04,-1.13 6.96,-0.06 7.73,2.71 0.77,2.76 -1.17,5.18 -5.21,6.31 -4.08,1.14 -7.14,0.12 -7.92,-2.65zm1.75 24.25l0.54 4.52 7.41 -0.89c2.47,-0.29 5.24,-1.02 7.52,-1.55l0.02 0.13c-1.56,0.84 -3.15,1.74 -4.47,2.65l-9.65 6.59 0.6 4.94 20.9 -2.51 -0.54 -4.52 -7.41 0.88c-2.47,0.3 -5.31,1.03 -7.52,1.53l-0.02 -0.13c1.56,-0.84 3.14,-1.71 4.47,-2.62l9.65 -6.59 -0.6 -4.94 -20.9 2.51zm1.28 40.22c-0.43,5.67 3.4,9.85 10.25,10.37 6.83,0.52 11.09,-3.04 11.52,-8.71 0.43,-5.67 -3.2,-9.83 -10.06,-10.35 -6.86,-0.52 -11.28,3.03 -11.71,8.69zm4.09 0.31c0.22,-2.86 3.03,-4.46 7.25,-4.14 4.18,0.32 6.56,2.31 6.34,5.18 -0.22,2.87 -2.87,4.48 -7.05,4.16 -4.22,-0.32 -6.76,-2.33 -6.54,-5.2zm-6.69 23.38l-0.95 4.15 7.52 1.74c2.01,0.46 5.55,0.92 7.62,1.13l-0.03 0.13 -5.78 0.35 -8.49 1.06 -0.63 2.7 7.17 4.71 5.02 2.91 -0.02 0.13c-1.96,-0.72 -5.33,-1.89 -7.35,-2.36l-7.52 -1.73 -0.98 4.24 20.52 4.74 1.19 -5.16 -8.39 -5.32c-1.13,-0.69 -2.28,-1.29 -3.52,-1.97l0.03 -0.13c1.41,-0.07 2.72,-0.13 4.04,-0.26l9.88 -1.16 1.19 -5.16 -20.52 -4.74zm-10.09 33.39l-1.71 4.43 19.64 7.58 1.71 -4.43 -19.64 -7.58z"/>
  <path class="fil1" d="M107.68 396.6l5.02 3.64c4.99,3.63 10.32,3.31 14.57,-2.54 4.25,-5.86 2.78,-10.87 -2.42,-14.65l-4.81 -3.49 -12.36 17.04zm6.1 -0.32l7.85 -10.82 0.73 0.53c2.9,2.11 3.92,4.76 0.97,8.84 -2.96,4.08 -5.92,4.09 -8.82,1.98l-0.73 -0.53zm26.71 20.19l5.5 2.49 5.74 -7.9c0.94,-1.31 1.84,-2.74 2.75,-4.21l0.12 0.06c-0.53,1.63 -0.99,3.27 -1.34,4.85l-2.15 9.52 5.59 2.53 12.12 -17.63 -4.23 -1.91 -5.41 8.33c-1.14,1.89 -2.32,3.8 -3.48,5.82l-0.12 -0.05c0.6,-2.28 1.12,-4.52 1.63,-6.67l2.11 -9.82 -3.85 -1.74 -6.08 8.02c-1.32,1.82 -2.59,3.69 -3.9,5.64l-0.12 -0.05c0.75,-2.21 1.39,-4.33 2.05,-6.48l2.78 -9.52 -4.5 -2.03 -5.21 20.75zm38.05 14.04l4.63 1.07 4.73 -20.52 -4.62 -1.06 -4.74 20.51zm25.36 5.12l4.25 0.33 0.58 -7.7c0.16,-2.06 0.08,-5.63 -0.02,-7.71l0.12 0.01 1.22 5.67 2.32 8.24 2.77 0.21 3.58 -7.79 2.12 -5.41 0.13 0.01c-0.41,2.04 -1.07,5.55 -1.22,7.61l-0.59 7.7 4.35 0.33 1.6 -20.99 -5.28 -0.41 -4 9.09c-0.52,1.22 -0.93,2.46 -1.42,3.78l-0.13 -0.01c-0.28,-1.38 -0.54,-2.67 -0.87,-3.95l-2.63 -9.6 -5.28 -0.4 -1.6 20.99zm48.99 0.67c5.39,-0.62 7.9,-3.93 7.12,-10.77l-1.33 -11.48 -4.55 0.52 1.38 11.97c0.45,3.91 -0.75,5.42 -3.09,5.68 -2.34,0.27 -3.78,-0.93 -4.23,-4.84l-1.38 -11.97 -4.74 0.55 1.32 11.49c0.78,6.83 4.08,9.47 9.5,8.85zm28.78 -5.61l12.6 -3.48 -1.06 -3.86 -8.03 2.21 -4.54 -16.43 -4.58 1.26 5.61 20.3zm31.84 -10.91l4.34 -1.92 -3.03 -6.85 0.32 -14.98 -4.55 2.02 0.22 5.2c0.11,1.68 0.17,3.24 0.26,4.97l-0.11 0.05c-1.19,-1.24 -2.28,-2.35 -3.45,-3.56l-3.68 -3.67 -4.66 2.07 11.31 9.82 3.03 6.85zm23.92 -24.93c-0.67,-2.08 -1.55,-4.43 -2.34,-6.58l0.11 -0.07c1.66,1.54 3.51,3.3 5.14,4.74l1.47 1.35 -3.75 2.46 -0.63 -1.9zm-0.54 13.09l4.05 -2.65 -1.66 -4.9 5.38 -3.52 3.82 3.48 4.21 -2.76 -17.04 -14 -4.78 3.13 6.02 21.22z"/>
  <path class="fil0" d="M230.64 292.98l-78.04 0 0 -124.68 29.65 0c18.99,-0.11 35.71,3.43 48.39,13.43l0 42.18c-8.41,-21.75 -21.8,-36.23 -45.35,-35.88l-18.79 0 0 91.49c8.13,0 1.68,0 24.38,0 22.7,0 35.48,-9.66 39.76,-27.31l0 40.77z"/>
  <path class="fil0" d="M243.64 292.98l65.06 0 0 -124.68 -29.65 0c-18.99,-0.11 -35.7,3.43 -48.38,13.43l0 42.18c8.41,-21.75 21.79,-36.23 45.35,-35.88l18.78 0 0 91.49 -0.03 0 0 0.45 -51.13 0 0 13.01z"/>
  <g id="_2810125965504">
   <g>
    <path class="fil0" d="M308.7 154.39l-22.49 0c-24.78,0 -44.41,8.57 -53.72,17.43 -0.52,0.83 11.62,-9.35 42.17,-9.35l34.04 0 0 -8.08z"/>
    <path class="fil0" d="M303.32 140.94c-5.96,0 -11.92,-0.1 -17.89,0 -28.12,0.46 -43.21,10.87 -52.52,19.73 -0.52,0.84 15.29,-11.66 40.97,-11.66l29.44 0 0 -8.07z"/>
   </g>
   <g>
    <path class="fil0" d="M152.6 154.39l22.49 0c24.78,0 44.41,8.57 53.73,17.43 0.52,0.83 -11.63,-9.35 -42.17,-9.35l-34.05 0 0 -8.08z"/>
    <path class="fil0" d="M157.98 140.94c5.96,0 11.93,-0.1 17.89,0 28.12,0.46 43.21,10.87 52.52,19.73 0.52,0.84 -15.28,-11.66 -40.97,-11.66l-29.44 0 0 -8.07z"/>
   </g>
  </g>
  <g id="_2846051897408">
   <path class="fil0" d="M312.71 196.1l0 69.07c0.48,-0.35 0.76,-0.65 0.96,-0.95 0.19,-0.47 0.37,-0.93 0.55,-1.39 0.07,-0.24 0.17,-0.5 0.29,-0.8 0.05,-0.13 0.11,-0.27 0.16,-0.41 3.55,-9.64 5.49,-20.06 5.49,-30.93 0,-11.9 -2.32,-23.26 -6.54,-33.65 -0.22,-0.33 -0.5,-0.64 -0.91,-0.94z"/>
   <path class="fil0" d="M148.56 265.28l0 -69.07c-0.48,0.35 -0.76,0.65 -0.96,0.96 -0.18,0.46 -0.37,0.92 -0.54,1.38 -0.08,0.24 -0.17,0.5 -0.29,0.8 -0.06,0.14 -0.11,0.27 -0.17,0.41 -3.55,9.64 -5.49,20.06 -5.49,30.93 0,11.9 2.33,23.26 6.54,33.65 0.22,0.33 0.5,0.64 0.91,0.94z"/>
  </g>
  <g id="_2846051898032">
   <path class="fil0" d="M335.4 223.78c3.72,0 6.74,3.02 6.74,6.74 0,1.68 -0.62,3.22 -1.64,4.4 -0.85,1.15 -2.1,1.99 -3.78,2.21 -0.43,0.08 -0.87,0.13 -1.32,0.13 -3.72,0 -6.74,-3.02 -6.74,-6.74 0,-3.72 3.02,-6.74 6.74,-6.74zm-12.45 6.74c0,6.88 5.58,12.45 12.45,12.45 6.87,0 12.45,-5.57 12.45,-12.45 0,-6.87 -5.58,-12.45 -12.45,-12.45 -6.87,0 -12.45,5.58 -12.45,12.45z"/>
   <path class="fil0" d="M230.47 132.66c-3.72,0 -6.74,-3.01 -6.74,-6.73 0,-1.68 0.62,-3.22 1.64,-4.4 0.84,-1.15 2.1,-1.99 3.78,-2.21 0.42,-0.08 0.87,-0.13 1.32,-0.13 3.72,0 6.73,3.02 6.73,6.74 0,3.72 -3.01,6.73 -6.73,6.73zm12.44 -6.73c0,-6.88 -5.57,-12.45 -12.44,-12.45 -6.88,0 -12.45,5.57 -12.45,12.45 0,6.87 5.57,12.44 12.45,12.44 6.87,0 12.44,-5.57 12.44,-12.44z"/>
   <path class="fil0" d="M132.61 230.86c0,3.72 -3.02,6.74 -6.74,6.74 -1.68,0 -3.22,-0.62 -4.4,-1.64 -1.15,-0.84 -1.98,-2.1 -2.2,-3.78 -0.09,-0.43 -0.13,-0.87 -0.13,-1.32 0,-3.72 3.01,-6.74 6.73,-6.74 3.72,0 6.74,3.02 6.74,6.74zm-6.74 -12.45c-6.87,0 -12.44,5.58 -12.44,12.45 0,6.88 5.57,12.45 12.44,12.45 6.88,0 12.45,-5.57 12.45,-12.45 0,-6.87 -5.57,-12.45 -12.45,-12.45z"/>
   <path class="fil0" d="M230.81 328.72c3.72,0 6.73,3.01 6.73,6.73 0,1.69 -0.61,3.23 -1.63,4.41 -0.85,1.15 -2.11,1.98 -3.79,2.2 -0.42,0.09 -0.86,0.13 -1.31,0.13 -3.72,0 -6.74,-3.02 -6.74,-6.74 0,-3.72 3.02,-6.73 6.74,-6.73zm-12.45 6.73c0,6.88 5.57,12.45 12.45,12.45 6.87,0 12.44,-5.57 12.44,-12.45 0,-6.87 -5.57,-12.44 -12.44,-12.44 -6.88,0 -12.45,5.57 -12.45,12.44z"/>
  </g>
  <g id="_2846051905712">
   <path class="fil0" d="M230.64 153.86l4.17 0c4.89,-4.05 10.5,-7.35 16.46,-10.29 -8.83,-1.89 -14.29,-2.47 -20.63,-2.4 -6.35,-0.07 -11.81,0.51 -20.63,2.4 5.95,2.94 11.56,6.24 16.45,10.29l4.18 0z"/>
   <path class="fil0" d="M206.58 303.58l-11.19 -4.95c-2.69,-1.69 -2.95,-1.17 -6.91,-1.17 -5.38,0 -10.77,0 -16.15,0 0.68,1.01 1.34,1.71 2.42,2.51 1.23,0.92 1.55,1.26 2.78,2.16 6.65,4.91 13.58,9.06 21,12.15 9.96,3.83 20.79,5.93 32.11,5.93 11.05,0 21.64,-2 31.42,-5.67 0.95,-0.39 1.89,-0.8 2.81,-1.23 8.19,-3.82 11.31,-5.53 18.62,-10.99 1.77,-1.32 4.36,-3.22 5.45,-4.86 -5.23,0 -10.46,0 -15.7,0 -8.94,0 -3.75,0.04 -12.41,3.73 -17.15,7.32 -36.4,8.36 -54.25,2.39z"/>
  </g>
  <path class="fil0" d="M171.21 274.82l16.74 0c-12.65,-2.11 -15.1,-4.4 -16.74,-16.75l0 16.75z"/>
  <path class="fil0" d="M290.07 274.82l-16.75 0c12.65,-2.11 15.1,-4.4 16.75,-16.75l0 16.75z"/>
  <g id="_2846051903456">
   <path class="fil0" d="M171.21 274.82l16.74 0c-12.65,-2.11 -15.1,-4.4 -16.74,-16.75l0 16.75z"/>
   <path class="fil0" d="M290.07 274.82l-16.75 0c12.65,-2.11 15.1,-4.4 16.75,-16.75l0 16.75z"/>
   <path class="fil0" d="M171.21 192.51l16.74 0c-12.65,2.12 -15.1,4.4 -16.74,16.75l0 -16.75z"/>
   <path class="fil0" d="M290.07 192.51l-16.75 0c12.65,2.12 15.1,4.4 16.75,16.75l0 -16.75z"/>
  </g>
  <path class="fil1" d="M581.23 140.77c-3.64,0 -6.98,-0.69 -10,-2.07 -3.02,-1.38 -5.67,-3.24 -7.96,-5.59l3.67 -4.21c1.82,1.92 3.99,3.43 6.52,4.53 2.52,1.09 5.14,1.64 7.85,1.64 3.38,0 6.01,-0.77 7.89,-2.31 1.87,-1.53 2.81,-3.55 2.81,-6.05 0,-1.77 -0.38,-3.18 -1.13,-4.22 -0.76,-1.04 -1.77,-1.93 -3.05,-2.66 -1.27,-0.72 -2.72,-1.45 -4.33,-2.18l-7.35 -3.21c-1.66,-0.72 -3.29,-1.64 -4.88,-2.73 -1.59,-1.09 -2.9,-2.49 -3.94,-4.18 -1.04,-1.69 -1.56,-3.79 -1.56,-6.29 0,-2.6 0.69,-4.93 2.07,-6.99 1.38,-2.05 3.28,-3.67 5.7,-4.84 2.42,-1.17 5.19,-1.76 8.32,-1.76 3.12,0 5.98,0.58 8.59,1.72 2.6,1.15 4.79,2.63 6.56,4.45l-3.52 4.22c-1.61,-1.4 -3.38,-2.54 -5.31,-3.4 -1.92,-0.85 -4.03,-1.28 -6.32,-1.28 -2.87,0 -5.17,0.67 -6.92,2.03 -1.74,1.35 -2.61,3.17 -2.61,5.46 0,1.62 0.41,2.95 1.25,3.99 0.83,1.04 1.91,1.9 3.24,2.57 1.33,0.68 2.67,1.33 4.02,1.96l7.26 3.12c2.04,0.89 3.84,1.9 5.43,3.05 1.59,1.14 2.84,2.58 3.75,4.29 0.91,1.72 1.37,3.83 1.37,6.33 0,2.71 -0.69,5.17 -2.07,7.38 -1.38,2.22 -3.39,3.97 -6.02,5.27 -2.62,1.31 -5.74,1.96 -9.33,1.96zm27.5 -0.94l0 -51.24 29.52 0 0 5.47 -23.04 0 0 16.09 19.45 0 0 5.54 -19.45 0 0 18.59 23.82 0 0 5.55 -30.3 0zm41.16 0l0 -51.24 6.48 0 0 25.7 0.24 0 21.32 -25.7 7.34 0 -16.01 19.53 18.51 31.71 -7.26 0 -15.31 -26.63 -8.83 10.38 0 16.25 -6.48 0zm62.56 0.94c-4.27,0 -8.05,-1.1 -11.36,-3.28 -3.31,-2.19 -5.89,-5.29 -7.73,-9.3 -1.85,-4.01 -2.78,-8.75 -2.78,-14.21 0,-5.47 0.93,-10.17 2.78,-14.1 1.84,-3.93 4.42,-6.95 7.73,-9.06 3.31,-2.11 7.09,-3.17 11.36,-3.17 4.33,0 8.13,1.06 11.41,3.17 3.28,2.11 5.86,5.13 7.73,9.06 1.88,3.93 2.81,8.63 2.81,14.1 0,5.46 -0.93,10.2 -2.81,14.21 -1.87,4.01 -4.45,7.11 -7.73,9.3 -3.28,2.18 -7.08,3.28 -11.41,3.28zm0 -5.78c3.08,0 5.74,-0.86 8.01,-2.58 2.27,-1.72 4.02,-4.15 5.27,-7.3 1.25,-3.15 1.88,-6.86 1.88,-11.13 0,-4.22 -0.63,-7.87 -1.88,-10.94 -1.25,-3.07 -3,-5.45 -5.27,-7.15 -2.27,-1.69 -4.93,-2.53 -8.01,-2.53 -3.02,0 -5.67,0.84 -7.96,2.53 -2.29,1.7 -4.06,4.08 -5.31,7.15 -1.25,3.07 -1.88,6.72 -1.88,10.94 0,4.27 0.63,7.98 1.88,11.13 1.25,3.15 3.02,5.58 5.31,7.3 2.29,1.72 4.94,2.58 7.96,2.58zm32.97 4.84l0 -51.24 6.48 0 0 45.69 22.42 0 0 5.55 -28.9 0zm31.4 0l17.34 -51.24 7.34 0 17.34 51.24 -6.88 0 -8.98 -28.67c-0.94,-2.86 -1.82,-5.71 -2.65,-8.55 -0.84,-2.84 -1.67,-5.74 -2.5,-8.71l-0.32 0c-0.78,2.97 -1.58,5.87 -2.42,8.71 -0.83,2.84 -1.72,5.69 -2.65,8.55l-9.06 28.67 -6.56 0zm9.06 -15.62l0 -5.16 23.66 0 0 5.16 -23.66 0zm40.14 15.62l0 -51.24 6.49 0 0 21.48 23.9 0 0 -21.48 6.48 0 0 51.24 -6.48 0 0 -24.14 -23.9 0 0 24.14 -6.49 0zm77.18 0l0 -45.69 -15.47 0 0 -5.55 37.49 0 0 5.55 -15.46 0 0 45.69 -6.56 0zm31.24 0l0 -51.24 6.48 0 0 51.24 -6.48 0zm20.54 0l0 -51.24 7.11 0 18.2 31.87c0.99,1.72 1.93,3.5 2.81,5.35 0.89,1.85 1.77,3.74 2.66,5.66l0.31 0c-0.16,-2.65 -0.34,-5.37 -0.55,-8.16 -0.21,-2.79 -0.31,-5.48 -0.31,-8.08l0 -26.64 6.25 0 0 51.24 -7.11 0 -18.2 -31.87c-0.94,-1.72 -1.89,-3.51 -2.85,-5.39 -0.96,-1.87 -1.86,-3.75 -2.69,-5.62l-0.32 0c0.21,2.55 0.41,5.18 0.59,7.89 0.18,2.71 0.27,5.44 0.27,8.2l0 26.79 -6.17 0zm70.69 0.94c-4.53,0 -8.53,-1.06 -11.99,-3.17 -3.46,-2.1 -6.18,-5.14 -8.16,-9.1 -1.98,-3.95 -2.97,-8.72 -2.97,-14.29 0,-4.11 0.59,-7.81 1.76,-11.09 1.17,-3.28 2.81,-6.08 4.92,-8.4 2.11,-2.31 4.59,-4.07 7.46,-5.27 2.86,-1.2 5.99,-1.8 9.37,-1.8 3.54,0 6.52,0.65 8.94,1.96 2.43,1.3 4.37,2.76 5.82,4.37l-3.59 4.06c-1.25,-1.35 -2.75,-2.47 -4.49,-3.36 -1.74,-0.88 -3.92,-1.32 -6.52,-1.32 -3.44,0 -6.43,0.84 -8.99,2.53 -2.55,1.7 -4.51,4.08 -5.89,7.15 -1.38,3.07 -2.07,6.74 -2.07,11.01 0,4.33 0.66,8.05 1.99,11.17 1.33,3.13 3.25,5.55 5.78,7.27 2.53,1.72 5.61,2.58 9.26,2.58 1.82,0 3.56,-0.28 5.23,-0.82 1.67,-0.55 2.99,-1.29 3.98,-2.23l0 -13.36 -10.85 0 0 -5.39 16.79 0 0 21.56c-1.62,1.72 -3.79,3.14 -6.52,4.26 -2.74,1.12 -5.82,1.68 -9.26,1.68zm48.19 0c-4.53,0 -8.52,-1.06 -11.99,-3.17 -3.46,-2.1 -6.18,-5.14 -8.16,-9.1 -1.98,-3.95 -2.97,-8.72 -2.97,-14.29 0,-4.11 0.59,-7.81 1.76,-11.09 1.17,-3.28 2.81,-6.08 4.92,-8.4 2.11,-2.31 4.6,-4.07 7.46,-5.27 2.87,-1.2 5.99,-1.8 9.37,-1.8 3.55,0 6.53,0.65 8.95,1.96 2.42,1.3 4.36,2.76 5.82,4.37l-3.6 4.06c-1.25,-1.35 -2.74,-2.47 -4.49,-3.36 -1.74,-0.88 -3.92,-1.32 -6.52,-1.32 -3.44,0 -6.43,0.84 -8.98,2.53 -2.55,1.7 -4.52,4.08 -5.9,7.15 -1.38,3.07 -2.07,6.74 -2.07,11.01 0,4.33 0.67,8.05 1.99,11.17 1.33,3.13 3.26,5.55 5.78,7.27 2.53,1.72 5.61,2.58 9.26,2.58 1.82,0 3.57,-0.28 5.23,-0.82 1.67,-0.55 3,-1.29 3.99,-2.23l0 -13.36 -10.86 0 0 -5.39 16.79 0 0 21.56c-1.61,1.72 -3.79,3.14 -6.52,4.26 -2.73,1.12 -5.82,1.68 -9.26,1.68zm28.05 -0.94l0 -51.24 6.48 0 0 51.24 -6.48 0zm36.16 0l0 -51.24 6.48 0 0 51.24 -6.48 0zm20.54 0l0 -51.24 6.48 0 0 45.69 22.42 0 0 5.55 -28.9 0zm37.96 0l0 -51.24 8.2 0 9.69 27.42c0.62,1.72 1.21,3.43 1.76,5.15 0.54,1.72 1.1,3.54 1.68,5.47l0.31 0c0.57,-1.93 1.12,-3.75 1.64,-5.47 0.52,-1.72 1.07,-3.43 1.64,-5.15l9.69 -27.42 8.12 0 0 51.24 -6.09 0 0 -28.2c0,-1.51 0.05,-3.2 0.15,-5.07 0.11,-1.88 0.22,-3.74 0.35,-5.59 0.13,-1.85 0.28,-3.53 0.43,-5.04l-0.31 0 -3.98 12.34 -9.61 26.48 -4.76 0 -9.61 -26.48 -3.99 -12.34 -0.31 0c0.16,1.51 0.3,3.19 0.43,5.04 0.13,1.85 0.25,3.71 0.35,5.59 0.11,1.87 0.16,3.56 0.16,5.07l0 28.2 -5.94 0zm74.99 0.94c-2.66,0 -5.09,-0.38 -7.31,-1.14 -2.21,-0.75 -4.15,-1.97 -5.81,-3.67 -1.67,-1.69 -2.97,-3.94 -3.91,-6.75 -0.94,-2.81 -1.41,-6.23 -1.41,-10.23l0 -30.39 6.49 0 0 30.54c0,4.01 0.53,7.17 1.6,9.49 1.07,2.32 2.5,3.96 4.29,4.92 1.8,0.97 3.82,1.45 6.06,1.45 2.24,0 4.28,-0.48 6.13,-1.45 1.85,-0.96 3.32,-2.6 4.41,-4.92 1.1,-2.32 1.64,-5.48 1.64,-9.49l0 -30.54 6.17 0 0 30.39c0,4 -0.45,7.42 -1.36,10.23 -0.92,2.81 -2.2,5.06 -3.87,6.75 -1.67,1.7 -3.62,2.92 -5.86,3.67 -2.24,0.76 -4.66,1.14 -7.26,1.14zm47.8 -0.94l0 -51.24 29.53 0 0 5.47 -23.05 0 0 16.09 19.45 0 0 5.54 -19.45 0 0 18.59 23.83 0 0 5.55 -30.31 0zm41.16 0l0 -51.24 6.49 0 0 25.7 0.23 0 21.32 -25.7 7.35 0 -16.02 19.53 18.52 31.71 -7.27 0 -15.31 -26.63 -8.82 10.38 0 16.25 -6.49 0zm62.57 0.94c-4.27,0 -8.06,-1.1 -11.37,-3.28 -3.3,-2.19 -5.88,-5.29 -7.73,-9.3 -1.85,-4.01 -2.77,-8.75 -2.77,-14.21 0,-5.47 0.92,-10.17 2.77,-14.1 1.85,-3.93 4.43,-6.95 7.73,-9.06 3.31,-2.11 7.1,-3.17 11.37,-3.17 4.32,0 8.12,1.06 11.4,3.17 3.28,2.11 5.86,5.13 7.74,9.06 1.87,3.93 2.81,8.63 2.81,14.1 0,5.46 -0.94,10.2 -2.81,14.21 -1.88,4.01 -4.46,7.11 -7.74,9.3 -3.28,2.18 -7.08,3.28 -11.4,3.28zm0 -5.78c3.07,0 5.74,-0.86 8,-2.58 2.27,-1.72 4.03,-4.15 5.28,-7.3 1.25,-3.15 1.87,-6.86 1.87,-11.13 0,-4.22 -0.62,-7.87 -1.87,-10.94 -1.25,-3.07 -3.01,-5.45 -5.28,-7.15 -2.26,-1.69 -4.93,-2.53 -8,-2.53 -3.02,0 -5.68,0.84 -7.97,2.53 -2.29,1.7 -4.06,4.08 -5.31,7.15 -1.25,3.07 -1.87,6.72 -1.87,10.94 0,4.27 0.62,7.98 1.87,11.13 1.25,3.15 3.02,5.58 5.31,7.3 2.29,1.72 4.95,2.58 7.97,2.58zm32.96 4.84l0 -51.24 7.11 0 18.2 31.87c0.99,1.72 1.92,3.5 2.81,5.35 0.89,1.85 1.77,3.74 2.66,5.66l0.31 0c-0.16,-2.65 -0.34,-5.37 -0.55,-8.16 -0.21,-2.79 -0.31,-5.48 -0.31,-8.08l0 -26.64 6.25 0 0 51.24 -7.11 0 -18.2 -31.87c-0.94,-1.72 -1.89,-3.51 -2.85,-5.39 -0.96,-1.87 -1.86,-3.75 -2.7,-5.62l-0.31 0c0.21,2.55 0.41,5.18 0.59,7.89 0.18,2.71 0.27,5.44 0.27,8.2l0 26.79 -6.17 0zm69.44 0.94c-4.27,0 -8.06,-1.1 -11.37,-3.28 -3.3,-2.19 -5.88,-5.29 -7.73,-9.3 -1.85,-4.01 -2.77,-8.75 -2.77,-14.21 0,-5.47 0.92,-10.17 2.77,-14.1 1.85,-3.93 4.43,-6.95 7.73,-9.06 3.31,-2.11 7.1,-3.17 11.37,-3.17 4.32,0 8.12,1.06 11.4,3.17 3.28,2.11 5.86,5.13 7.74,9.06 1.87,3.93 2.81,8.63 2.81,14.1 0,5.46 -0.94,10.2 -2.81,14.21 -1.88,4.01 -4.46,7.11 -7.74,9.3 -3.28,2.18 -7.08,3.28 -11.4,3.28zm0 -5.78c3.07,0 5.74,-0.86 8.01,-2.58 2.26,-1.72 4.02,-4.15 5.27,-7.3 1.25,-3.15 1.87,-6.86 1.87,-11.13 0,-4.22 -0.62,-7.87 -1.87,-10.94 -1.25,-3.07 -3.01,-5.45 -5.27,-7.15 -2.27,-1.69 -4.94,-2.53 -8.01,-2.53 -3.02,0 -5.68,0.84 -7.97,2.53 -2.29,1.7 -4.06,4.08 -5.31,7.15 -1.25,3.07 -1.87,6.72 -1.87,10.94 0,4.27 0.62,7.98 1.87,11.13 1.25,3.15 3.02,5.58 5.31,7.3 2.29,1.72 4.95,2.58 7.97,2.58zm32.96 4.84l0 -51.24 8.2 0 9.69 27.42c0.62,1.72 1.21,3.43 1.76,5.15 0.54,1.72 1.1,3.54 1.68,5.47l0.31 0c0.57,-1.93 1.12,-3.75 1.64,-5.47 0.52,-1.72 1.07,-3.43 1.64,-5.15l9.68 -27.42 8.13 0 0 51.24 -6.1 0 0 -28.2c0,-1.51 0.06,-3.2 0.16,-5.07 0.11,-1.88 0.22,-3.74 0.35,-5.59 0.13,-1.85 0.28,-3.53 0.43,-5.04l-0.31 0 -3.98 12.34 -9.61 26.48 -4.77 0 -9.6 -26.48 -3.99 -12.34 -0.31 0c0.16,1.51 0.3,3.19 0.43,5.04 0.13,1.85 0.25,3.71 0.35,5.59 0.11,1.87 0.16,3.56 0.16,5.07l0 28.2 -5.94 0zm56.79 0l0 -51.24 6.48 0 0 51.24 -6.48 0z"/>
  <path class="fil1" d="M564.17 370.36l54.67 0c54.4,0 90.85,-29.9 90.85,-93.69 0,-63.79 -36.45,-91.98 -93.12,-91.98l-52.4 0 0 185.67zm41.86 -33.89l0 -117.89 7.97 0c31.61,0 52.69,13.67 52.69,58.09 0,44.42 -21.08,59.8 -52.69,59.8l-7.97 0zm154.63 33.89l53.25 0 17.37 -84.29c2.85,-13.96 4.85,-28.76 6.84,-43.86l1.14 0c1.71,15.1 3.98,29.9 6.83,43.86l17.37 84.29 54.11 0 33.32 -185.67 -41.01 0 -13.1 86.57c-2.28,19.36 -4.84,39.01 -6.83,59.52l-1.14 0c-3.42,-20.51 -7.41,-40.44 -11.11,-59.52l-18.79 -86.57 -37.31 0 -19.65 86.57c-3.98,19.36 -7.4,39.01 -10.82,59.52l-1.14 0c-1.99,-20.51 -4.55,-39.87 -7.12,-59.52l-12.24 -86.57 -43.57 0 33.6 185.67zm215.86 0l41.86 0 0 -185.67 -41.86 0 0 185.67zm85.71 0l37.59 0 0 -68.06c0,-18.23 -3.13,-49.55 -5.41,-67.78l1.14 0 14.53 48.98 25.91 70.91 24.49 0 26.2 -70.91 15.09 -48.98 1.14 0c-2.28,18.23 -5.69,49.55 -5.69,67.78l0 68.06 38.44 0 0 -185.67 -46.7 0 -29.05 82.58c-3.7,11.11 -6.55,22.21 -9.97,34.18l-1.14 0c-3.41,-11.97 -6.55,-23.07 -10.25,-34.18l-29.61 -82.58 -46.71 0 0 185.67zm290.19 3.42c47.84,0 73.18,-26.49 73.18,-87.14l0 -101.95 -40.44 0 0 106.22c0,34.74 -11.96,46.7 -32.74,46.7 -20.79,0 -32.18,-11.96 -32.18,-46.7l0 -106.22 -42.15 0 0 101.95c0,60.65 26.2,87.14 74.33,87.14zm116.18 -3.42l115.34 0 0 -35.31 -73.48 0 0 -150.36 -41.86 0 0 185.67zm154.92 0l41.86 0 0 -66.07 56.1 -119.6 -43.85 0 -16.81 42.71c-5.12,13.96 -10.25,26.77 -15.66,41.01l-1.14 0c-5.12,-14.24 -9.96,-27.05 -15.09,-41.01l-16.52 -42.71 -44.99 0 56.1 119.6 0 66.07zm156.05 -93.97c5.13,-18.51 9.97,-40.16 14.53,-59.81l1.14 0c4.84,19.37 9.96,41.3 15.09,59.81l4.27 17.08 -39.58 0 4.55 -17.08zm-67.2 93.97l42.71 0 11.39 -44.14 56.67 0 11.39 44.14 44.43 0 -58.09 -185.67 -50.41 0 -58.09 185.67z"/>
 </g>
</svg>
