<svg xmlns="http://www.w3.org/2000/svg" viewBox="-11.5009 76.348 243.7373 80" width="243.737px" height="80px"><g transform="matrix(0.14419199526309967, 0, 0, 0.14419199526309967, 25.65595245361331, 92.5193557739258)" style="" id="object-1"><title>Emblem Logo</title><path d="M -16.561 -75.443 C -149.74 -75.443 -257.69 32.504 -257.69 165.675 C -257.69 298.847 -149.74 406.802 -16.561 406.802 C 116.594 406.802 224.569 298.847 224.569 165.675 C 224.569 32.504 116.594 -75.443 -16.561 -75.443" style="stroke-width: 0.172; fill: rgb(255, 255, 255);"><title>emblem_background</title></path><path d="M -16.561 326.053 C 72.012 326.053 143.821 254.248 143.821 165.675 C 143.821 77.1 72.012 5.304 -16.561 5.304 C -105.13 5.304 -176.94 77.1 -176.94 165.675 C -176.94 254.248 -105.13 326.053 -16.561 326.053 Z M 218.308 165.675 C 218.308 295.389 113.136 400.541 -16.561 400.541 C -146.28 400.541 -251.43 295.389 -251.43 165.675 C -251.43 35.962 -146.28 -69.181 -16.561 -69.181 C 113.136 -69.181 218.308 35.962 218.308 165.675 Z" style="stroke-width: 0.172; fill: rgb(0, 33, 71);"></path><path d="M 124.322 285.619 L 136.087 281.337 L 147.852 277.054 L 145.671 289.391 L 143.489 301.725 L 133.906 293.676 L 124.322 285.628 L 124.322 285.619 Z M 129.265 277.054 L 141.03 281.337 L 152.796 285.619 L 143.213 293.668 L 133.602 301.715 L 131.447 289.378 L 129.265 277.044 L 129.265 277.054 Z M 138.545 273.672 L 144.814 284.517 L 151.085 295.363 L 126.035 295.363 L 132.276 284.517 L 138.545 273.672 Z M -189.43 285.619 L -177.63 281.337 L -165.87 277.054 L -168.05 289.391 L -170.23 301.725 L -179.81 293.676 L -189.4 285.628 L -189.43 285.619 Z M -184.48 277.054 L -172.72 281.337 L -160.92 285.619 L -170.53 293.668 L -180.12 301.715 L -182.3 289.378 L -184.48 277.044 L -184.48 277.054 Z M -175.17 273.672 L -168.9 284.517 L -162.66 295.363 L -187.71 295.363 L -181.44 284.517 L -175.17 273.672 Z" fill="#daa520" style="stroke-width: 0.172;"><title>matahari</title></path><path d="M -189.4 234.174 C -191.33 229.413 -195.31 227.822 -198.59 229.144 C -201.41 230.274 -202.41 232.417 -202.41 235.255 L -202.41 238.232 C -202.43 240.225 -202.32 241.709 -203.54 242.198 C -204.67 242.654 -205.75 241.946 -206.35 240.392 C -206.91 239.049 -206.88 237.442 -206.47 235.752 L -210.31 234.54 C -211.22 236.886 -211.19 239.571 -210.25 241.953 C -208.56 246.1 -204.75 247.973 -201.47 246.647 C -198.57 245.478 -197.66 242.839 -197.63 240.452 L -197.6 237.431 C -197.57 235.398 -197.63 234.111 -196.39 233.609 C -195.17 233.131 -194.09 233.753 -193.35 235.611 C -192.63 237.351 -192.54 239.584 -193.24 241.491 L -189.34 242.69 C -188.18 239.877 -188.35 236.857 -189.43 234.174 L -189.4 234.174 Z M -196.74 213.192 L -199.87 199.808 L -203.84 200.735 L -201.82 209.414 L -206.63 210.534 L -208.29 203.423 L -212.21 204.344 L -210.55 211.454 L -214.75 212.431 L -216.71 204.074 L -220.69 204.998 L -217.62 218.066 L -196.74 213.192 Z M -201.85 185.142 L -202.24 180.324 L -207.96 180.76 L -211.44 178.517 L -202.82 172.619 L -203.23 167.338 L -215.5 175.955 L -224.5 170.146 L -224.11 175.457 L -214.86 181.152 L -214.86 181.285 L -223.62 181.955 L -223.26 186.773 L -201.88 185.146 L -201.85 185.142 Z M -201.52 146.701 C -201.08 140.929 -204.97 136.676 -211.96 136.143 C -218.92 135.613 -223.23 139.242 -223.67 145.01 C -224.11 150.783 -220.41 155.022 -213.43 155.553 C -206.47 156.086 -201.97 152.471 -201.52 146.701 Z M -205.69 146.384 C -205.91 149.3 -208.76 150.931 -213.07 150.603 C -217.32 150.28 -219.72 148.246 -219.53 145.329 C -219.31 142.412 -216.6 140.771 -212.35 141.096 C -208.04 141.422 -205.47 143.468 -205.69 146.384 Z M -198.01 122.689 L -194.42 109.86 L -198.35 108.767 L -200.64 116.937 L -217.35 112.265 L -218.65 116.923 L -198.01 122.689 Z M -197.6 87.545 C -199.28 86.12 -201.33 84.584 -203.18 83.17 L -203.12 83.051 C -200.86 83.467 -198.32 83.968 -196.14 84.308 L -194.12 84.677 L -196 88.837 L -197.6 87.548 L -197.6 87.545 Z M -190.89 99.087 L -188.87 94.591 L -192.96 91.289 L -190.28 85.331 L -185.09 86.231 L -182.96 81.56 L -205.28 78.832 L -207.65 84.135 L -190.89 99.081 L -190.89 99.087 Z M -176.72 70.314 L -174.12 66.237 L -181.69 61.438 L -177.72 55.191 L -170.17 59.99 L -167.55 55.883 L -185.67 44.386 L -188.26 48.5 L -181.31 52.919 L -185.25 59.162 L -192.24 54.732 L -194.84 58.81 L -176.72 70.31 L -176.72 70.314 Z M -142.83 28.56 L -139.16 25.357 L -150.54 12.265 L -146.09 8.398 L -148.77 5.304 L -161.34 16.243 L -158.66 19.309 L -154.21 15.442 L -142.83 28.56 Z M -123.58 13.205 L -119.63 10.388 L -132.09 -7.04 L -136.04 -4.251 L -123.58 13.205 Z M -106.35 2.268 L -102.23 0.168 L -105.63 -6.597 C -106.76 -8.864 -108.42 -11.266 -109.75 -13.282 L -109.61 -13.337 C -108.28 -12.123 -106.84 -10.934 -105.55 -9.967 L -95.881 -3.036 L -91.351 -5.301 L -100.99 -24.44 L -105.13 -22.368 L -101.74 -15.574 C -100.58 -13.309 -98.892 -10.851 -97.648 -8.917 L -97.786 -8.836 C -99.11 -10.05 -100.49 -11.266 -101.82 -12.206 L -111.48 -19.164 L -116.01 -16.872 L -106.35 2.268 Z M -67.516 -13.033 C -64.644 -13.862 -62.491 -15.713 -61.468 -17.509 L -64.23 -26.981 L -71.742 -24.799 L -70.638 -21.015 L -67.24 -22.009 L -66.19 -18.447 C -66.578 -17.894 -67.379 -17.425 -68.234 -17.177 C -72.074 -16.071 -74.725 -17.95 -75.941 -22.203 C -77.155 -26.318 -75.636 -29.467 -72.459 -30.405 C -70.665 -30.903 -69.449 -30.654 -68.124 -30.046 L -66.522 -33.581 C -68.29 -34.631 -70.802 -35.239 -73.759 -34.355 C -79.255 -32.78 -82.651 -27.477 -80.663 -20.656 C -78.646 -13.725 -73.178 -11.376 -67.516 -13.033 Z M -36.721 -19.137 C -33.767 -19.496 -31.335 -20.932 -30.01 -22.563 L -31.198 -32.339 L -38.96 -31.428 L -38.489 -27.505 L -34.982 -27.919 L -34.54 -24.274 C -35.009 -23.777 -35.866 -23.446 -36.75 -23.334 C -40.727 -22.865 -43.018 -25.158 -43.543 -29.55 C -44.068 -33.83 -42.053 -36.675 -38.765 -37.06 C -36.916 -37.283 -35.755 -36.84 -34.54 -36.013 L -32.385 -39.216 C -33.96 -40.569 -36.335 -41.563 -39.401 -41.204 C -45.09 -40.513 -49.288 -35.846 -48.46 -28.776 C -47.603 -21.622 -42.578 -18.419 -36.721 -19.137 Z M -14.793 -20.628 L -9.96 -20.49 L -9.268 -41.894 L -14.103 -42.061 L -14.793 -20.628 Z M 22.437 -16.486 L 27.132 -15.409 L 31.966 -36.289 L 27.242 -37.365 L 22.437 -16.486 Z M 42.184 -11.293 L 54.613 -6.488 L 56.076 -10.299 L 48.15 -13.365 L 54.392 -29.55 L 49.889 -31.289 L 42.184 -11.293 Z M 67.731 -0.882 L 71.459 1.3 L 75.437 -5.494 C 76.487 -7.289 78.006 -10.603 78.835 -12.564 L 78.945 -12.508 L 77.537 -6.764 L 75.988 1.799 L 78.447 3.234 L 85.186 -2.317 L 89.55 -6.322 L 89.661 -6.239 C 88.362 -4.554 86.208 -1.627 85.132 0.168 L 81.182 6.962 L 84.993 9.199 L 95.819 -9.305 L 91.152 -12.039 L 83.447 -5.494 C 82.424 -4.581 81.514 -3.643 80.464 -2.649 L 80.354 -2.732 C 80.712 -4.112 81.043 -5.411 81.321 -6.737 L 83.171 -16.705 L 78.531 -19.413 L 67.704 -0.882 L 67.731 -0.882 Z M 103.856 24.058 C 108.055 27.649 112.253 27.234 116.81 21.904 L 124.487 12.983 L 120.925 9.917 L 112.943 19.253 C 110.347 22.291 108.386 22.429 106.563 20.882 C 104.74 19.309 104.657 17.402 107.255 14.365 L 115.236 5.056 L 111.535 1.881 L 103.885 10.83 C 99.327 16.16 99.632 20.44 103.856 24.058 M 132.248 53.517 L 140.229 64.704 L 143.545 62.338 L 138.352 55.082 L 142.385 52.23 L 146.609 58.159 L 149.898 55.811 L 145.671 49.882 L 149.178 47.369 L 154.151 54.354 L 157.464 51.981 L 149.675 41.071 L 132.248 53.517 Z M 147.659 77.5 L 149.842 81.814 L 154.979 79.227 L 159.039 79.975 L 153.321 88.717 L 155.697 93.445 L 163.761 80.8 L 174.311 82.733 L 171.909 77.978 L 161.221 76.233 L 161.138 76.114 L 168.981 72.164 L 166.827 67.847 L 147.659 77.5 Z M 161.801 113.238 C 163.348 118.81 168.456 121.479 175.223 119.596 C 181.934 117.718 184.751 112.836 183.204 107.259 C 181.657 101.686 176.715 98.962 169.974 100.846 C 163.236 102.73 160.226 107.666 161.801 113.238 Z M 165.805 112.115 C 165.032 109.297 167.159 106.79 171.3 105.627 C 175.416 104.477 178.399 105.561 179.172 108.378 C 179.973 111.198 177.985 113.661 173.869 114.808 C 169.728 115.97 166.606 114.927 165.805 112.109 L 165.805 112.115 Z M 167.601 136.809 L 168.153 141.412 L 175.692 140.508 C 178.205 140.203 181.023 139.468 183.344 138.926 L 183.371 139.059 C 181.769 139.913 180.167 140.834 178.812 141.758 L 168.981 148.469 L 169.589 153.496 L 190.883 150.941 L 190.33 146.333 L 182.79 147.239 C 180.277 147.543 177.377 148.289 175.14 148.792 L 175.112 148.659 C 176.686 147.805 178.317 146.92 179.669 145.994 L 189.475 139.283 L 188.894 134.255 L 167.601 136.813 L 167.601 136.809 Z M 168.898 177.766 C 168.456 183.54 172.35 187.792 179.337 188.325 C 186.298 188.856 190.607 185.226 191.049 179.456 C 191.491 173.685 187.789 169.445 180.802 168.914 C 173.842 168.382 169.34 171.997 168.898 177.766 M 173.068 178.084 C 173.289 175.168 176.134 173.538 180.443 173.864 C 184.697 174.187 187.099 176.223 186.906 179.138 C 186.684 182.056 183.978 183.697 179.725 183.373 C 175.416 183.047 172.848 181.002 173.068 178.084 Z M 166.246 201.891 L 165.28 206.122 L 172.931 207.889 C 174.975 208.365 178.593 208.826 180.692 209.044 L 180.663 209.172 L 174.782 209.534 L 166.137 210.608 L 165.501 213.364 L 172.792 218.153 L 177.902 221.122 L 177.874 221.249 C 175.885 220.521 172.462 219.322 170.39 218.851 L 162.74 217.082 L 161.745 221.406 L 182.624 226.226 L 183.84 220.971 L 175.307 215.56 C 174.146 214.853 172.985 214.245 171.716 213.555 L 171.742 213.425 C 173.18 213.351 174.533 213.288 175.858 213.159 L 185.912 211.976 L 187.126 206.719 L 166.246 201.897 L 166.246 201.891 Z M 155.972 235.902 L 154.234 240.411 L 174.23 248.123 L 175.969 243.612 L 155.972 235.902 Z M -141.78 334.684 L -136.67 338.394 C -131.59 342.08 -126.15 341.76 -121.81 335.797 C -117.51 329.837 -119 324.73 -124.3 320.89 L -129.19 317.338 L -141.78 334.69 L -141.78 334.684 Z M -135.57 334.356 L -127.56 323.341 L -126.81 323.88 C -123.86 326.024 -122.84 328.733 -125.85 332.881 C -128.86 337.032 -131.87 337.039 -134.82 334.896 L -135.57 334.356 Z M -108.36 354.914 L -102.76 357.453 L -96.93 349.408 C -95.964 348.077 -95.053 346.615 -94.113 345.121 L -94.003 345.173 C -94.528 346.842 -94.997 348.508 -95.356 350.114 L -97.538 359.809 L -91.876 362.383 L -79.531 344.438 L -83.84 342.484 L -89.335 350.968 C -90.496 352.898 -91.711 354.843 -92.898 356.905 L -93.007 356.855 C -92.401 354.536 -91.848 352.25 -91.351 350.063 L -89.197 340.062 L -93.119 338.284 L -99.31 346.455 C -100.66 348.302 -101.96 350.206 -103.28 352.203 L -103.39 352.151 C -102.65 349.897 -101.98 347.74 -101.32 345.548 L -98.477 335.856 L -103.06 333.783 L -108.36 354.914 Z M -69.616 369.218 L -64.92 370.305 L -60.086 349.412 L -64.782 348.329 L -69.616 369.218 Z M -43.791 374.435 L -39.455 374.768 L -38.877 366.926 C -38.711 364.829 -38.793 361.192 -38.904 359.081 L -38.765 359.088 L -37.522 364.856 L -35.176 373.246 L -32.331 373.458 L -28.685 365.524 L -26.53 360.019 L -26.393 360.027 C -26.834 362.105 -27.497 365.68 -27.663 367.779 L -28.244 375.615 L -23.824 375.951 L -22.195 354.573 L -27.58 354.161 L -31.64 363.414 C -32.165 364.661 -32.58 365.913 -33.076 367.261 L -33.214 367.249 C -33.518 365.84 -33.767 364.537 -34.099 363.222 L -36.777 353.453 L -42.163 353.041 L -43.791 374.419 L -43.791 374.435 Z M 6.086 375.112 C 11.584 374.482 14.152 371.11 13.352 364.148 L 11.997 352.453 L 7.358 352.984 L 8.767 365.172 C 9.236 369.155 8.02 370.687 5.617 370.964 C 3.242 371.238 1.779 370.013 1.309 366.032 L -0.098 353.849 L -4.933 354.403 L -3.58 366.098 C -2.779 373.054 0.591 375.748 6.086 375.112 Z M 35.391 369.398 L 48.233 365.854 L 47.156 361.924 L 38.98 364.181 L 34.341 347.445 L 29.701 348.731 L 35.391 369.398 Z M 67.842 358.293 L 72.26 356.331 L 69.167 349.358 L 69.471 334.104 L 64.86 336.158 L 65.08 341.457 C 65.19 343.168 65.246 344.763 65.356 346.516 L 65.219 346.569 C 64.031 345.306 62.898 344.176 61.711 342.946 L 57.983 339.208 L 53.231 341.312 L 64.748 351.316 L 67.842 358.293 Z M 92.174 332.899 C 91.512 330.785 90.599 328.39 89.798 326.206 L 89.91 326.133 C 91.621 327.699 93.5 329.493 95.157 330.955 L 96.648 332.336 L 92.837 334.838 L 92.174 332.899 Z M 91.649 346.232 L 95.765 343.528 L 94.079 338.544 L 99.549 334.958 L 103.443 338.501 L 107.724 335.689 L 90.379 321.425 L 85.49 324.611 L 91.649 346.223 L 91.649 346.232 Z" style="stroke-width: 0.172; fill: rgb(255, 255, 255);"><title>text_mark</title></path><path d="M 62.926 88.032 L 40.03 88.032 C 14.787 88.032 -5.208 96.752 -14.682 105.779 C -15.235 106.633 -2.862 96.256 28.265 96.256 L 62.926 96.256 L 62.926 88.032 Z M 57.458 74.333 C 51.38 74.333 45.306 74.233 39.229 74.333 C 10.588 74.802 -4.767 85.399 -14.24 94.429 C -14.793 95.279 1.309 82.554 27.464 82.554 L 57.458 82.554 L 57.458 74.333 Z M -96.047 88.032 L -73.123 88.032 C -47.879 88.032 -27.912 96.752 -18.41 105.779 C -17.885 106.633 -30.259 96.256 -61.357 96.256 L -96.019 96.256 L -96.019 88.032 L -96.047 88.032 Z M -90.55 74.333 C -84.474 74.333 -78.398 74.233 -72.35 74.333 C -43.709 74.802 -28.325 85.399 -18.852 94.429 C -18.328 95.279 -34.429 82.554 -60.584 82.554 L -90.55 82.554 L -90.55 74.333 Z M 67.014 130.506 L 67.014 200.839 C 67.511 200.483 67.787 200.179 67.98 199.867 C 68.173 199.397 68.367 198.928 68.56 198.453 C 68.642 198.218 68.725 197.948 68.837 197.644 C 68.892 197.505 68.947 197.362 69.001 197.227 C 72.62 187.408 74.609 176.799 74.609 165.728 C 74.609 153.609 72.233 142.039 67.954 131.464 C 67.731 131.122 67.429 130.813 67.014 130.506 M -100.14 200.952 L -100.14 130.619 C -100.63 130.975 -100.94 131.279 -101.13 131.591 C -101.32 132.061 -101.49 132.53 -101.68 133.005 C -101.76 133.242 -101.85 133.511 -101.98 133.816 C -102.04 133.953 -102.09 134.096 -102.15 134.232 C -105.77 144.05 -107.73 154.659 -107.73 165.73 C -107.73 177.852 -105.35 189.419 -101.07 199.994 C -100.85 200.336 -100.58 200.645 -100.14 200.952" style="stroke-width: 0.172; fill: rgb(0, 33, 71);"><title>buku</title></path><path d="M -16.561 87.492 L -12.306 87.492 C -7.335 83.361 -1.619 79.999 4.431 77.017 C -4.546 75.088 -10.097 74.503 -16.561 74.57 C -23.024 74.503 -28.574 75.088 -37.578 77.017 C -31.502 80.002 -25.786 83.361 -20.814 87.492 L -16.561 87.492 Z M -41.057 239.949 L -52.464 234.909 C -55.199 233.186 -55.474 233.722 -59.508 233.722 L -75.941 233.722 C -75.25 234.752 -74.586 235.46 -73.483 236.279 C -72.24 237.211 -71.908 237.561 -70.665 238.481 C -63.87 243.479 -56.828 247.701 -49.261 250.854 C -39.124 254.756 -28.105 256.888 -16.561 256.888 C -5.319 256.888 5.48 254.85 15.422 251.12 C 16.388 250.721 17.356 250.301 18.294 249.862 C 26.635 245.968 29.812 244.233 37.24 238.667 C 39.063 237.324 41.688 235.387 42.791 233.719 L 26.828 233.719 C 17.714 233.719 22.989 233.756 14.179 237.516 C -3.275 244.967 -22.885 246.02 -41.057 239.942 L -41.057 239.949 Z M -77.1 210.667 L -60.033 210.667 C -72.902 208.511 -75.416 206.188 -77.1 193.612 L -77.1 210.667 Z M 43.952 210.667 L 26.912 210.667 C 39.781 208.511 42.266 206.188 43.952 193.612 L 43.952 210.667 Z" style="stroke-width: 0.172; fill: rgb(0, 33, 71);"><title>organ</title></path><path d="M -77.1 210.667 L -60.033 210.667 C -72.902 208.511 -75.416 206.188 -77.1 193.612 L -77.1 210.667 Z M 43.952 210.667 L 26.912 210.667 C 39.781 208.511 42.266 206.188 43.952 193.612 L 43.952 210.667 Z M -77.1 126.855 L -60.033 126.855 C -72.902 129.001 -75.416 131.331 -77.1 143.907 L -77.1 126.855 Z M 43.952 126.855 L 26.912 126.855 C 39.781 129.001 42.266 131.331 43.952 143.907 L 43.952 126.855 Z" style="stroke-width: 0.172; fill: rgb(0, 33, 71);"><title>lingka_inner</title></path><path d="M -16.754 65.904 C -20.537 65.904 -23.603 62.832 -23.603 59.042 C -23.603 57.33 -22.968 55.762 -21.945 54.56 C -21.062 53.389 -19.792 52.534 -18.08 52.311 C -17.638 52.23 -17.196 52.174 -16.754 52.174 C -12.943 52.174 -9.876 55.254 -9.876 59.042 C -9.876 62.832 -12.943 65.904 -16.754 65.904 M -4.076 59.042 C -4.076 52.035 -9.737 46.374 -16.754 46.374 C -23.742 46.374 -29.43 52.035 -29.43 59.042 C -29.43 66.041 -23.742 71.719 -16.754 71.719 C -9.737 71.719 -4.076 66.041 -4.076 59.042 M -116.4 165.903 C -116.4 169.691 -119.47 172.764 -123.25 172.764 C -124.96 172.764 -126.54 172.137 -127.72 171.094 C -128.91 170.239 -129.74 168.956 -129.99 167.244 C -130.07 166.807 -130.1 166.362 -130.1 165.903 C -130.1 162.113 -127.03 159.041 -123.25 159.041 C -119.47 159.041 -116.4 162.113 -116.4 165.903 M -123.25 153.224 C -130.24 153.224 -135.93 158.903 -135.93 165.903 C -135.93 172.904 -130.24 178.579 -123.25 178.579 C -116.26 178.579 -110.57 172.904 -110.57 165.903 C -110.57 158.903 -116.26 153.224 -123.25 153.224 M -16.396 265.554 C -12.611 265.554 -9.544 268.627 -9.544 272.416 C -9.544 274.127 -10.153 275.699 -11.202 276.897 C -12.059 278.068 -13.329 278.917 -15.07 279.147 C -15.483 279.231 -15.924 279.279 -16.396 279.279 C -20.177 279.279 -23.243 276.204 -23.243 272.416 C -23.243 268.627 -20.177 265.554 -16.396 265.554 M -29.072 272.416 C -29.072 279.417 -23.41 285.092 -16.396 285.092 C -9.407 285.092 -3.717 279.417 -3.717 272.416 C -3.717 265.417 -9.407 259.739 -16.396 259.739 C -23.41 259.739 -29.072 265.417 -29.072 272.416" fill="#daa520" style="stroke-width: 0.172;"><title>ketua</title></path><path d="M 90.13 172.764 C 86.319 172.764 83.253 169.691 83.253 165.903 C 83.253 164.189 83.889 162.621 84.91 161.421 C 85.766 160.248 87.065 159.401 88.777 159.174 C 89.219 159.089 89.661 159.041 90.103 159.041 C 93.914 159.041 96.98 162.113 96.98 165.903 C 96.98 169.691 93.914 172.764 90.103 172.764 L 90.13 172.764 Z M 102.779 165.903 C 102.779 158.903 97.117 153.224 90.13 153.224 C 83.116 153.224 77.453 158.903 77.453 165.903 C 77.453 172.904 83.116 178.579 90.13 178.579 C 97.117 178.579 102.779 172.904 102.779 165.903" fill="#daa520" style="stroke-width: 0.172;"><title>pembantu_1</title></path><path d="M -16.533 115.876 C -3.635 105.694 13.406 102.089 32.739 102.194 L 62.926 102.194 L 62.926 229.161 L -3.331 229.161 L -3.331 215.91 L 48.73 215.91 L 48.73 215.455 L 48.758 215.455 L 48.758 122.281 L 29.646 122.281 C 5.645 121.927 -7.97 136.676 -16.561 158.823 C -16.565 158.806 -16.575 158.789 -16.579 158.773 L -16.579 115.87 L -16.561 115.87 L -16.533 115.876 Z" style="stroke-width: 0.172; fill: rgb(0, 33, 71);"><title>badge_blue</title></path><path d="M -62.785 122.284 L -81.897 122.284 L -81.897 215.458 L -57.069 215.458 C -34.002 215.458 -20.998 205.653 -16.635 187.757 L -16.635 229.16 L -96.066 229.16 L -96.066 102.191 L -65.878 102.191 C -46.532 102.087 -29.531 105.685 -16.635 115.851 L -16.635 158.683 C -25.2 136.614 -38.838 121.931 -62.785 122.284 Z" fill="#daa520" style="stroke-width: 0.172;"><title>badge_gold</title></path></g><g id="object-2" transform="matrix(1, 0, 0, 1, 2.842170943040401e-14, -1.7763568394002505e-15)"><title>Wordmark dan Separator</title><path d="M 70.738 76.348 L 72.706 76.348 L 72.706 156.348 C 72.058 156.348 71.408 156.348 70.738 156.348 C 70.738 129.949 70.738 103.549 70.738 76.348 Z" fill="#002147" style="stroke-width: 0.965;"></path><path d="M 113.332 85.698 C 113.27 85.738 113.233 89.528 113.242 94.11 L 113.27 102.431 L 116.534 102.431 L 116.596 97.172 L 120.237 102.419 C 123.112 102.431 123.941 102.405 123.941 102.37 C 123.941 102.331 122.948 100.924 121.742 99.231 L 119.547 96.155 C 120.011 95.526 120.915 94.373 121.857 93.207 C 122.785 92.024 123.564 91.034 123.564 90.97 C 123.564 90.921 122.785 90.884 121.845 90.897 L 120.111 90.897 L 116.596 95.578 L 116.534 85.611 C 114.137 85.611 113.395 85.649 113.332 85.698 Z M 137.308 85.698 C 137.248 85.738 137.209 89.528 137.22 94.11 L 137.248 102.431 L 140.51 102.431 L 140.51 85.611 C 138.114 85.611 137.372 85.649 137.308 85.698 Z M 154.443 94.021 L 154.443 102.431 L 157.707 102.431 C 157.769 95.062 157.782 94.812 158.033 94.398 C 158.17 94.159 158.447 93.845 158.659 93.695 C 158.862 93.556 159.275 93.406 159.59 93.356 C 159.903 93.305 160.38 93.331 160.657 93.393 C 160.933 93.457 161.284 93.645 161.447 93.797 C 161.612 93.959 161.784 94.286 161.848 94.523 C 161.924 94.761 161.974 96.643 161.974 98.704 L 161.974 102.431 L 165.364 102.431 C 165.364 96.795 165.301 94.711 165.225 94.184 C 165.15 93.645 164.96 92.929 164.798 92.578 C 164.634 92.24 164.322 91.787 164.084 91.585 C 163.857 91.387 163.442 91.108 163.168 90.97 C 162.805 90.783 162.351 90.695 161.534 90.657 C 160.582 90.619 160.293 90.657 159.652 90.897 C 159.136 91.083 158.71 91.373 158.308 91.787 L 157.707 92.39 L 157.707 85.611 L 154.443 85.611 L 154.443 94.021 Z M 229.368 86.151 C 229.13 86.302 228.842 86.627 228.715 86.864 C 228.566 87.168 228.514 87.469 228.552 87.808 C 228.593 88.084 228.727 88.446 228.853 88.626 C 228.979 88.8 229.28 89.037 229.52 89.164 C 229.808 89.315 230.146 89.377 230.598 89.352 C 231.152 89.315 231.327 89.252 231.703 88.876 C 232.08 88.511 232.169 88.323 232.217 87.808 C 232.269 87.356 232.217 87.067 232.054 86.755 C 231.929 86.527 231.627 86.226 231.39 86.101 C 231.139 85.962 230.699 85.862 230.372 85.862 C 229.995 85.862 229.657 85.951 229.368 86.151 Z M 161.597 137.226 C 161.597 137.252 162.613 139.55 163.857 142.347 C 165.101 145.147 166.117 147.518 166.117 147.621 C 166.117 147.72 165.688 148.863 165.176 150.168 C 164.659 151.46 164.234 152.578 164.234 152.64 C 164.234 152.718 164.835 152.767 165.802 152.767 L 167.371 152.767 C 168.816 149.115 170.209 145.662 171.389 142.724 C 172.556 139.787 173.522 137.353 173.522 137.302 C 173.522 137.24 172.831 137.202 171.978 137.202 L 170.446 137.202 C 169.041 140.942 168.501 142.449 168.326 142.951 C 168.136 143.441 167.962 143.854 167.899 143.854 C 167.849 143.854 167.221 142.372 166.494 140.554 L 165.176 137.265 C 162.413 137.212 161.597 137.212 161.597 137.226 Z M 184.455 86.078 C 184.23 86.2 183.929 86.502 183.791 86.741 C 183.627 87.042 183.565 87.356 183.588 87.745 C 183.614 88.059 183.752 88.461 183.89 88.651 C 184.016 88.837 184.316 89.076 184.544 89.188 C 184.758 89.289 185.146 89.377 185.385 89.377 C 185.624 89.377 186.012 89.301 186.238 89.213 C 186.45 89.124 186.778 88.85 186.941 88.611 C 187.154 88.311 187.245 88.009 187.256 87.621 C 187.256 87.305 187.154 86.903 187.04 86.716 C 186.928 86.516 186.64 86.252 186.426 86.113 C 186.175 85.962 185.786 85.862 185.448 85.862 C 185.134 85.862 184.694 85.962 184.455 86.078 Z M 91.304 86.502 C 90.789 86.552 89.999 86.716 89.546 86.864 C 89.094 87.017 88.429 87.344 88.052 87.608 C 87.676 87.857 87.236 88.234 87.086 88.435 C 86.921 88.651 86.671 89.1 86.521 89.438 C 86.37 89.789 86.22 90.38 86.18 90.757 C 86.156 91.136 86.194 91.761 86.284 92.138 C 86.37 92.515 86.559 93.054 86.723 93.331 C 86.872 93.608 87.199 93.997 87.425 94.196 C 87.664 94.398 88.192 94.711 88.604 94.901 C 89.019 95.088 89.724 95.34 90.174 95.452 C 90.626 95.565 91.68 95.766 92.533 95.905 C 93.374 96.042 94.355 96.281 94.706 96.444 C 95.057 96.594 95.432 96.858 95.533 97.034 C 95.646 97.211 95.735 97.599 95.735 97.914 C 95.735 98.251 95.634 98.653 95.496 98.916 C 95.358 99.154 95.044 99.468 94.804 99.594 C 94.49 99.783 94.065 99.858 93.186 99.894 C 92.332 99.935 91.804 99.894 91.304 99.759 C 90.927 99.644 90.424 99.393 90.198 99.207 C 89.921 98.978 89.696 98.614 89.546 98.164 L 89.308 97.473 L 85.843 97.397 C 85.944 98.428 86.156 99.094 86.37 99.544 C 86.621 100.06 87.01 100.587 87.437 100.988 C 87.801 101.327 88.441 101.754 88.856 101.942 C 89.27 102.119 89.921 102.343 90.3 102.444 C 90.714 102.546 91.705 102.608 92.81 102.608 C 94.203 102.608 94.804 102.556 95.384 102.382 C 95.797 102.256 96.425 102.006 96.764 101.829 C 97.116 101.654 97.643 101.278 97.956 100.988 C 98.295 100.673 98.671 100.134 98.897 99.656 C 99.224 98.929 99.262 98.729 99.262 97.599 C 99.262 96.521 99.211 96.243 98.936 95.654 C 98.748 95.275 98.407 94.775 98.156 94.561 C 97.907 94.334 97.429 94.01 97.078 93.832 C 96.739 93.656 96.124 93.432 95.735 93.331 C 95.334 93.229 94.465 93.054 93.816 92.954 C 93.161 92.842 92.308 92.702 91.932 92.64 C 91.553 92.578 91.038 92.439 90.8 92.339 C 90.564 92.251 90.213 91.988 90.022 91.774 C 89.772 91.498 89.67 91.248 89.67 90.921 C 89.67 90.657 89.783 90.256 89.921 90.043 C 90.061 89.815 90.388 89.528 90.651 89.414 C 90.989 89.264 91.466 89.202 92.37 89.202 C 93.348 89.202 93.725 89.252 94.065 89.428 C 94.305 89.554 94.656 89.803 94.856 89.993 C 95.044 90.17 95.257 90.507 95.319 90.731 L 95.446 91.136 L 98.897 91.136 C 98.748 90.205 98.573 89.667 98.407 89.315 C 98.258 88.977 97.956 88.499 97.756 88.259 C 97.555 88.034 97.078 87.658 96.701 87.432 C 96.324 87.193 95.583 86.903 95.069 86.767 C 94.553 86.627 93.7 86.49 93.186 86.465 C 92.671 86.439 91.818 86.453 91.304 86.502 Z M 170.634 88.059 L 170.634 89.503 L 174.777 89.503 L 174.777 102.431 L 178.544 102.431 L 178.544 89.503 L 182.686 89.503 L 182.686 86.615 L 170.634 86.615 L 170.634 88.059 Z M 104.61 90.807 C 104.295 90.897 103.73 91.136 103.356 91.321 C 102.978 91.522 102.375 91.962 102.023 92.313 C 101.671 92.665 101.232 93.256 101.057 93.621 C 100.868 93.972 100.63 94.624 100.53 95.062 C 100.429 95.491 100.341 96.217 100.341 96.695 C 100.341 97.158 100.403 97.836 100.479 98.201 C 100.554 98.552 100.768 99.167 100.943 99.544 C 101.119 99.921 101.496 100.487 101.772 100.789 C 102.062 101.088 102.513 101.489 102.789 101.679 C 103.064 101.868 103.63 102.142 104.045 102.307 C 104.684 102.556 105.035 102.608 106.429 102.608 C 107.71 102.619 108.21 102.569 108.751 102.382 C 109.126 102.256 109.667 102.018 109.944 101.868 C 110.221 101.703 110.634 101.377 110.86 101.126 C 111.073 100.875 111.373 100.448 111.514 100.172 C 111.651 99.894 111.801 99.446 111.865 99.167 L 111.954 98.665 L 108.876 98.665 C 108.612 99.294 108.4 99.608 108.235 99.759 C 108.073 99.909 107.784 100.084 107.595 100.159 C 107.395 100.235 106.918 100.298 106.529 100.298 C 106.105 100.298 105.589 100.196 105.299 100.06 C 105.022 99.935 104.61 99.634 104.396 99.381 C 104.169 99.119 103.932 98.704 103.854 98.453 C 103.792 98.189 103.73 97.85 103.73 97.7 L 103.73 97.41 L 112.015 97.41 C 112.015 96.293 111.954 95.604 111.875 95.152 C 111.801 94.699 111.563 93.972 111.35 93.519 C 111.135 93.069 110.71 92.453 110.396 92.138 C 110.081 91.824 109.542 91.423 109.191 91.26 C 108.851 91.096 108.286 90.884 107.934 90.795 C 107.595 90.709 106.83 90.644 106.24 90.644 C 105.651 90.644 104.925 90.72 104.61 90.807 Z M 105.36 93.094 C 105.602 92.991 106.003 92.905 106.24 92.89 C 106.479 92.89 106.905 92.954 107.182 93.03 C 107.459 93.105 107.859 93.356 108.061 93.569 C 108.273 93.797 108.513 94.196 108.589 94.461 C 108.677 94.736 108.751 95.062 108.751 95.188 C 108.751 95.39 108.55 95.402 103.73 95.402 L 103.806 95.062 C 103.854 94.862 103.994 94.51 104.107 94.272 C 104.234 94.034 104.47 93.708 104.635 93.556 C 104.784 93.406 105.123 93.193 105.36 93.094 Z M 127.895 90.833 C 127.556 90.921 126.991 91.147 126.639 91.311 C 126.3 91.473 125.697 91.926 125.321 92.289 C 124.945 92.665 124.479 93.269 124.292 93.645 C 124.104 94.021 123.866 94.699 123.764 95.152 C 123.651 95.604 123.564 96.293 123.564 96.695 C 123.564 97.083 123.626 97.712 123.702 98.076 C 123.79 98.428 123.964 98.978 124.091 99.294 C 124.228 99.608 124.544 100.134 124.794 100.461 C 125.043 100.789 125.574 101.278 125.949 101.539 C 126.325 101.804 126.977 102.142 127.392 102.295 C 127.845 102.469 128.573 102.608 129.211 102.644 C 129.801 102.683 130.618 102.644 131.032 102.569 C 131.445 102.494 132.136 102.256 132.577 102.054 C 133.002 101.842 133.668 101.377 134.056 101.026 C 134.534 100.573 134.885 100.084 135.175 99.481 C 135.413 98.991 135.666 98.189 135.739 97.661 C 135.865 96.933 135.865 96.482 135.752 95.716 C 135.666 95.062 135.461 94.398 135.175 93.808 C 134.936 93.305 134.497 92.654 134.207 92.351 C 133.907 92.052 133.392 91.649 133.041 91.448 C 132.702 91.248 132.049 90.983 131.597 90.858 C 131.071 90.709 130.38 90.633 129.651 90.644 C 129.036 90.644 128.246 90.731 127.895 90.833 Z M 128.509 93.406 C 128.924 93.181 129.189 93.143 129.853 93.167 C 130.491 93.193 130.781 93.281 131.196 93.556 C 131.574 93.797 131.824 94.11 132.074 94.624 C 132.374 95.252 132.413 95.491 132.413 96.594 C 132.413 97.372 132.351 98.039 132.238 98.35 C 132.136 98.627 131.872 99.04 131.673 99.28 C 131.458 99.506 131.121 99.797 130.908 99.894 C 130.68 100.021 130.205 100.097 129.714 100.097 C 129.224 100.097 128.748 100.021 128.523 99.894 C 128.321 99.797 127.958 99.494 127.743 99.243 C 127.518 98.991 127.265 98.578 127.191 98.327 C 127.118 98.064 127.027 97.459 126.991 96.971 C 126.954 96.482 126.977 95.816 127.064 95.464 C 127.141 95.126 127.38 94.573 127.592 94.261 C 127.82 93.946 128.221 93.556 128.509 93.406 Z M 145.72 90.795 C 145.381 90.884 144.815 91.096 144.475 91.272 C 144.136 91.435 143.659 91.8 143.41 92.089 C 143.158 92.363 142.844 92.816 142.719 93.094 C 142.579 93.356 142.442 93.82 142.404 94.122 L 142.33 94.651 L 145.403 94.651 C 145.794 93.772 146.059 93.42 146.258 93.305 C 146.446 93.181 146.885 93.069 147.223 93.03 C 147.663 93.005 147.991 93.054 148.329 93.215 C 148.669 93.381 148.857 93.594 148.983 93.935 C 149.083 94.184 149.172 94.612 149.172 94.875 L 149.172 95.34 C 146.885 95.491 145.856 95.615 145.403 95.702 C 144.954 95.789 144.338 95.98 144.026 96.118 C 143.709 96.256 143.246 96.556 142.97 96.795 C 142.706 97.034 142.367 97.448 142.23 97.724 C 142.028 98.113 141.967 98.465 141.967 99.231 C 141.967 100.06 142.017 100.348 142.267 100.838 C 142.442 101.176 142.694 101.553 142.832 101.679 C 142.97 101.804 143.397 102.068 143.773 102.267 C 144.413 102.594 144.563 102.619 145.844 102.608 C 146.861 102.608 147.35 102.546 147.703 102.393 C 147.952 102.281 148.393 101.966 148.669 101.715 L 149.182 101.238 L 149.172 102.431 L 152.435 102.431 C 152.37 93.583 152.37 93.583 152.058 92.905 C 151.882 92.515 151.493 92 151.166 91.712 C 150.853 91.423 150.288 91.083 149.911 90.96 C 149.435 90.795 148.807 90.709 147.79 90.683 C 146.913 90.657 146.109 90.709 145.72 90.795 Z M 146.949 97.549 C 147.3 97.487 147.942 97.435 149.107 97.41 L 149.107 98.276 C 149.107 99.069 149.07 99.181 148.732 99.558 C 148.531 99.769 148.166 100.035 147.952 100.123 C 147.726 100.222 147.174 100.298 146.724 100.298 C 145.983 100.298 145.87 100.26 145.529 99.921 C 145.241 99.634 145.153 99.432 145.153 99.081 C 145.153 98.816 145.241 98.478 145.353 98.313 C 145.468 98.164 145.732 97.95 145.92 97.85 C 146.12 97.751 146.586 97.611 146.949 97.549 Z M 194.774 90.771 C 194.547 90.833 194.147 91.021 193.895 91.186 C 193.631 91.334 193.206 91.712 192.953 92 L 192.476 92.515 L 192.476 90.884 L 189.212 90.884 L 189.212 102.431 L 192.476 102.431 C 192.54 95.252 192.565 94.924 192.791 94.474 C 192.927 94.196 193.268 93.832 193.531 93.656 C 193.934 93.393 194.172 93.331 194.788 93.331 C 195.226 93.343 195.715 93.42 195.928 93.544 C 196.142 93.645 196.407 93.946 196.53 94.196 C 196.719 94.598 196.744 95.088 196.744 98.54 L 196.744 102.431 L 200.133 102.431 C 200.133 96.357 200.072 94.246 200.009 93.832 C 199.934 93.42 199.77 92.855 199.619 92.578 C 199.48 92.302 199.154 91.862 198.905 91.599 C 198.64 91.334 198.149 91.021 197.786 90.884 C 197.323 90.709 196.834 90.633 196.156 90.644 C 195.614 90.644 194.987 90.709 194.774 90.771 Z M 204.777 90.897 C 204.402 91.034 203.811 91.361 203.461 91.625 C 203.121 91.875 202.644 92.375 202.418 92.716 C 202.193 93.054 201.892 93.645 201.74 94.021 C 201.578 94.474 201.466 95.126 201.427 95.905 C 201.389 96.556 201.427 97.41 201.501 97.787 C 201.578 98.164 201.804 98.816 202.005 99.231 C 202.217 99.67 202.644 100.235 203.008 100.587 C 203.361 100.913 203.977 101.327 204.377 101.517 C 204.992 101.816 205.244 101.868 206.285 101.868 C 207.377 101.868 207.552 101.829 208.293 101.463 C 208.771 101.238 209.31 100.849 209.599 100.524 L 210.087 99.983 C 210 102.469 209.952 102.694 209.66 103.133 C 209.474 103.422 209.11 103.737 208.782 103.9 C 208.355 104.126 208.016 104.189 207.263 104.189 C 206.724 104.189 206.133 104.126 205.945 104.051 C 205.745 103.987 205.444 103.774 205.244 103.586 C 205.054 103.398 204.879 103.097 204.84 102.908 L 204.777 102.556 L 201.515 102.556 C 201.578 103.284 201.74 103.812 201.917 104.189 C 202.091 104.565 202.443 105.069 202.695 105.294 C 202.947 105.506 203.41 105.832 203.747 105.996 C 204.075 106.159 204.655 106.359 205.029 106.461 C 205.444 106.561 206.374 106.637 207.35 106.637 C 208.706 106.637 209.122 106.586 209.837 106.359 C 210.303 106.196 210.893 105.934 211.155 105.771 C 211.407 105.608 211.733 105.37 211.883 105.243 C 212.023 105.105 212.285 104.802 212.461 104.565 C 212.647 104.326 212.911 103.774 213.052 103.348 C 213.302 102.594 213.315 102.307 213.315 96.721 L 213.315 90.884 L 210.05 90.884 L 210.05 92.263 C 209.11 91.361 208.582 91.021 208.204 90.884 C 207.729 90.709 207.237 90.633 206.509 90.644 C 205.807 90.644 205.244 90.731 204.777 90.897 Z M 206.537 93.256 C 206.712 93.207 207.139 93.156 207.476 93.156 C 207.83 93.156 208.33 93.243 208.609 93.381 C 208.881 93.494 209.26 93.783 209.461 93.997 C 209.649 94.222 209.888 94.699 209.987 95.062 C 210.087 95.414 210.176 95.968 210.176 96.281 C 210.176 96.594 210.112 97.071 210.038 97.347 C 209.964 97.624 209.747 98.064 209.573 98.327 C 209.384 98.592 209.034 98.929 208.795 99.081 C 208.456 99.294 208.142 99.343 207.414 99.356 C 206.56 99.356 206.423 99.319 205.945 98.978 C 205.656 98.78 205.292 98.377 205.129 98.102 C 204.879 97.661 204.84 97.423 204.84 96.281 C 204.84 95.088 204.866 94.912 205.169 94.398 C 205.354 94.083 205.656 93.72 205.86 93.594 C 206.06 93.457 206.361 93.305 206.537 93.256 Z M 218.023 90.946 C 217.608 91.122 217.042 91.423 216.763 91.625 C 216.491 91.814 216.05 92.289 215.788 92.654 C 215.523 93.03 215.196 93.645 215.058 94.021 C 214.909 94.422 214.758 95.165 214.72 95.779 C 214.682 96.405 214.72 97.186 214.807 97.661 C 214.894 98.113 215.098 98.767 215.26 99.105 C 215.423 99.457 215.825 100.035 216.162 100.412 C 216.553 100.849 217.042 101.214 217.582 101.477 C 218.323 101.829 218.498 101.868 219.653 101.868 C 220.844 101.868 220.947 101.842 221.712 101.427 C 222.151 101.188 222.715 100.763 222.954 100.487 L 223.393 99.983 C 223.306 102.469 223.255 102.694 222.967 103.133 C 222.766 103.448 222.427 103.737 222.025 103.925 C 221.485 104.189 221.274 104.215 220.318 104.178 C 219.478 104.138 219.15 104.064 218.875 103.863 C 218.687 103.725 218.409 103.372 218.273 103.083 L 218.023 102.569 L 214.758 102.556 C 214.909 103.335 215.072 103.827 215.22 104.163 C 215.384 104.49 215.724 104.967 215.976 105.231 C 216.239 105.481 216.715 105.832 217.056 105.996 C 217.379 106.159 218.121 106.399 218.711 106.51 C 219.5 106.674 220.116 106.711 221.097 106.663 C 221.963 106.623 222.69 106.499 223.23 106.324 C 223.682 106.171 224.347 105.832 224.725 105.583 C 225.101 105.33 225.552 104.904 225.741 104.627 C 225.941 104.353 226.206 103.774 226.357 103.348 C 226.607 102.581 226.619 102.318 226.619 96.721 L 226.619 90.884 L 223.356 90.884 L 223.356 92.263 C 222.415 91.361 221.887 91.021 221.51 90.884 C 221.044 90.709 220.53 90.633 219.815 90.633 C 219.001 90.633 218.61 90.709 218.023 90.946 Z M 219.841 93.256 C 220.016 93.207 220.42 93.156 220.758 93.156 C 221.084 93.143 221.561 93.229 221.824 93.343 C 222.075 93.446 222.427 93.656 222.578 93.808 C 222.74 93.959 222.992 94.311 223.143 94.586 C 223.356 94.989 223.405 95.315 223.418 96.217 C 223.418 97.198 223.368 97.435 223.092 97.976 C 222.904 98.35 222.566 98.754 222.239 98.978 C 221.763 99.319 221.612 99.356 220.746 99.356 C 219.867 99.356 219.73 99.319 219.251 98.978 C 218.961 98.78 218.598 98.377 218.436 98.102 C 218.185 97.661 218.148 97.423 218.148 96.281 C 218.148 95.088 218.172 94.912 218.471 94.398 C 218.661 94.083 218.961 93.72 219.163 93.594 C 219.366 93.457 219.667 93.305 219.841 93.256 Z M 183.817 96.658 L 183.817 102.431 L 187.08 102.431 L 187.08 90.884 L 183.817 90.884 L 183.817 96.658 Z M 228.755 96.658 L 228.755 102.431 L 232.018 102.431 L 232.018 90.884 L 228.755 90.884 L 228.755 96.658 Z M 93.124 109.035 C 93.074 109.084 93.022 112.873 93.034 117.457 L 93.06 125.779 L 96.324 125.779 C 96.375 114.306 96.387 110.529 96.387 110.002 L 96.387 109.021 C 93.939 108.973 93.186 108.995 93.124 109.035 Z M 147.538 117.369 L 147.538 125.779 L 150.802 125.779 L 150.866 120.544 L 154.504 125.779 L 158.209 125.779 C 157.883 125.24 156.915 123.872 155.849 122.389 C 154.782 120.908 153.879 119.64 153.853 119.566 C 153.828 119.502 154.719 118.311 155.824 116.929 C 156.929 115.548 157.833 114.382 157.833 114.331 C 157.833 114.269 157.054 114.23 156.111 114.242 L 154.38 114.242 L 150.866 118.913 L 150.802 108.959 L 147.538 108.959 L 147.538 117.369 Z M 217.455 109.486 C 217.217 109.651 216.918 109.976 216.792 110.214 C 216.64 110.515 216.589 110.803 216.629 111.154 C 216.666 111.431 216.792 111.783 216.89 111.946 C 216.993 112.097 217.267 112.334 217.494 112.473 C 217.731 112.624 218.121 112.726 218.436 112.726 C 218.725 112.726 219.15 112.637 219.377 112.535 C 219.59 112.423 219.892 112.184 220.03 111.996 C 220.218 111.745 220.28 111.457 220.28 110.941 C 220.28 110.275 220.243 110.178 219.804 109.75 C 219.389 109.324 219.251 109.273 218.61 109.235 C 218.023 109.197 217.821 109.235 217.455 109.486 Z M 86.911 117.872 L 86.911 125.779 L 90.55 125.779 L 90.55 109.961 L 86.911 109.961 L 86.911 117.872 Z M 135.427 110.051 C 135.365 110.088 135.326 113.654 135.339 117.96 L 135.365 125.779 L 146.159 125.779 L 146.095 122.954 L 139.002 122.891 L 139.002 119.125 L 144.401 119.125 L 144.401 116.364 L 139.002 116.364 L 139.066 112.913 L 145.782 112.848 L 145.782 109.961 C 137.835 109.961 135.488 110.002 135.427 110.051 Z M 103.73 114.205 C 103.415 114.318 102.864 114.683 102.513 115.009 L 101.847 115.61 L 101.847 114.23 L 98.459 114.23 L 98.459 125.779 L 101.847 125.779 C 101.847 118.499 101.859 118.21 102.097 117.745 C 102.267 117.41 102.52 117.16 102.852 116.993 C 103.152 116.842 103.604 116.74 103.981 116.74 C 104.371 116.74 104.736 116.829 104.936 116.965 C 105.123 117.08 105.36 117.356 105.475 117.557 C 105.651 117.872 105.675 118.523 105.714 121.862 L 105.738 125.779 L 109.003 125.779 C 109.064 118.185 109.078 117.995 109.328 117.656 C 109.466 117.471 109.781 117.18 110.02 117.018 C 110.331 116.802 110.621 116.729 111.135 116.729 C 111.662 116.729 111.915 116.802 112.192 117.018 C 112.391 117.18 112.631 117.495 112.729 117.722 C 112.856 118.023 112.893 119.064 112.893 121.95 L 112.893 125.779 L 116.157 125.779 C 116.094 118.461 116.031 116.779 115.943 116.491 C 115.856 116.252 115.606 115.773 115.381 115.421 C 115.064 114.959 114.776 114.708 114.223 114.42 C 113.634 114.119 113.27 114.03 112.529 113.991 C 111.779 113.956 111.388 114.005 110.695 114.242 C 110.031 114.47 109.642 114.694 109.103 115.197 C 108.665 115.598 108.375 115.787 108.375 115.675 C 108.375 115.574 108.137 115.247 107.847 114.947 C 107.507 114.607 107.069 114.318 106.681 114.193 C 106.304 114.067 105.7 113.98 105.174 113.991 C 104.696 113.991 104.045 114.093 103.73 114.205 Z M 162.163 114.168 C 161.823 114.269 161.22 114.507 160.843 114.694 C 160.469 114.897 159.864 115.348 159.502 115.711 C 159.101 116.101 158.686 116.679 158.471 117.156 C 158.271 117.581 158.044 118.235 157.97 118.598 C 157.896 118.95 157.833 119.605 157.833 120.043 C 157.833 120.47 157.92 121.172 158.02 121.612 C 158.12 122.037 158.333 122.628 158.471 122.93 C 158.623 123.219 158.924 123.683 159.15 123.959 C 159.362 124.235 159.853 124.676 160.23 124.927 C 160.606 125.189 161.22 125.514 161.597 125.665 C 162.037 125.829 162.715 125.956 163.482 125.991 C 164.172 126.031 164.96 126.005 165.364 125.917 C 165.74 125.842 166.407 125.605 166.843 125.402 C 167.272 125.189 167.911 124.763 168.264 124.434 C 168.615 124.096 169.054 123.58 169.229 123.268 C 169.405 122.954 169.67 122.366 169.794 121.95 C 169.945 121.436 170.02 120.809 170.02 120.005 C 170.02 119.163 169.945 118.575 169.768 117.995 C 169.631 117.545 169.355 116.929 169.156 116.617 C 168.954 116.302 168.652 115.913 168.488 115.737 C 168.326 115.562 167.911 115.222 167.559 114.984 C 167.221 114.758 166.618 114.445 166.242 114.306 C 165.752 114.13 165.162 114.053 164.172 114.03 C 163.241 114.005 162.588 114.043 162.163 114.168 Z M 162.79 116.754 C 163.077 116.603 163.555 116.505 163.92 116.491 C 164.333 116.491 164.736 116.59 165.101 116.767 C 165.415 116.929 165.814 117.256 166.016 117.495 C 166.203 117.732 166.456 118.297 166.57 118.751 C 166.707 119.302 166.759 119.829 166.707 120.382 C 166.669 120.831 166.542 121.447 166.43 121.764 C 166.318 122.076 166.055 122.516 165.826 122.74 C 165.602 122.967 165.176 123.243 164.863 123.356 C 164.458 123.507 164.107 123.546 163.605 123.482 C 163.192 123.431 162.728 123.268 162.451 123.08 C 162.136 122.88 161.862 122.529 161.636 122.051 C 161.323 121.384 161.284 121.197 161.284 119.943 C 161.284 118.701 161.323 118.499 161.612 117.932 C 161.798 117.595 162.024 117.242 162.111 117.156 C 162.213 117.066 162.514 116.891 162.79 116.754 Z M 176.912 114.155 C 176.673 114.23 176.334 114.368 176.16 114.47 C 175.983 114.557 175.605 114.871 175.307 115.16 L 174.777 115.675 L 174.777 114.23 L 171.389 114.23 L 171.389 125.779 L 174.777 125.779 C 174.777 119.753 174.828 118.249 174.914 118.034 C 174.992 117.834 175.166 117.545 175.318 117.394 C 175.468 117.232 175.768 117.004 175.971 116.905 C 176.195 116.791 176.661 116.715 177.136 116.729 C 177.65 116.74 178.03 116.816 178.243 116.965 C 178.43 117.08 178.669 117.356 178.781 117.557 C 178.957 117.872 178.983 118.523 179.021 121.862 L 179.046 125.779 L 182.309 125.779 C 182.309 118.297 182.272 117.293 182.121 116.74 C 182.021 116.364 181.796 115.827 181.63 115.548 C 181.468 115.274 181.117 114.897 180.852 114.708 C 180.577 114.519 180.112 114.282 179.798 114.168 C 179.458 114.053 178.857 113.98 178.291 113.991 C 177.777 114.005 177.151 114.067 176.912 114.155 Z M 187.894 114.18 C 187.556 114.269 186.955 114.507 186.576 114.694 C 186.202 114.897 185.598 115.348 185.233 115.711 C 184.834 116.101 184.418 116.679 184.204 117.156 C 184.002 117.581 183.777 118.235 183.703 118.598 C 183.627 118.95 183.565 119.605 183.565 120.043 C 183.565 120.47 183.653 121.172 183.752 121.612 C 183.853 122.037 184.066 122.628 184.204 122.93 C 184.356 123.219 184.657 123.683 184.882 123.959 C 185.096 124.235 185.585 124.676 185.961 124.927 C 186.338 125.189 186.955 125.514 187.331 125.665 C 187.77 125.829 188.448 125.956 189.212 125.991 C 189.903 126.031 190.694 126.005 191.095 125.917 C 191.471 125.842 192.137 125.605 192.576 125.402 C 193.003 125.189 193.644 124.763 193.996 124.434 C 194.347 124.096 194.788 123.58 194.963 123.268 C 195.139 122.954 195.389 122.377 195.515 121.989 C 195.665 121.487 195.74 120.859 195.74 120.005 C 195.74 119.151 195.665 118.523 195.515 118.034 C 195.389 117.633 195.15 117.055 194.963 116.74 C 194.788 116.428 194.334 115.9 193.97 115.548 C 193.596 115.211 193.003 114.784 192.664 114.621 C 192.313 114.445 191.76 114.23 191.409 114.143 C 191.071 114.053 190.28 113.991 189.653 113.991 C 189.037 113.991 188.245 114.081 187.894 114.18 Z M 188.524 116.754 C 188.825 116.603 189.276 116.505 189.653 116.505 C 190.003 116.505 190.507 116.603 190.783 116.715 C 191.058 116.842 191.471 117.17 191.688 117.443 C 191.961 117.771 192.162 118.223 192.302 118.812 C 192.438 119.402 192.488 119.943 192.438 120.445 C 192.401 120.859 192.276 121.447 192.162 121.764 C 192.051 122.076 191.786 122.516 191.561 122.74 C 191.336 122.967 190.907 123.243 190.595 123.356 C 190.192 123.507 189.841 123.546 189.338 123.482 C 188.923 123.431 188.46 123.268 188.184 123.08 C 187.869 122.88 187.596 122.529 187.366 122.051 C 187.055 121.384 187.015 121.197 187.015 119.943 C 187.015 118.701 187.055 118.499 187.341 117.932 C 187.531 117.595 187.757 117.242 187.846 117.156 C 187.945 117.066 188.245 116.891 188.524 116.754 Z M 202.331 114.23 C 201.979 114.368 201.427 114.758 201.075 115.11 L 200.447 115.724 L 200.447 114.295 L 197.12 114.23 L 197.12 125.779 L 200.509 125.779 C 200.509 118.95 200.549 118.17 200.697 117.808 C 200.8 117.569 201.101 117.232 201.363 117.055 C 201.726 116.802 201.991 116.74 202.556 116.74 C 203.034 116.74 203.384 116.816 203.598 116.965 C 203.786 117.08 204.025 117.356 204.139 117.557 C 204.315 117.872 204.339 118.523 204.377 121.862 L 204.402 125.779 L 207.666 125.779 C 207.666 118.611 207.69 118.271 207.917 117.808 C 208.054 117.507 208.344 117.194 208.631 117.03 C 208.971 116.829 209.322 116.754 209.837 116.74 C 210.413 116.74 210.615 116.802 210.928 117.055 C 211.143 117.232 211.355 117.581 211.431 117.847 C 211.495 118.096 211.557 119.967 211.557 122.051 L 211.557 125.779 L 214.819 125.779 C 214.819 117.808 214.807 117.356 214.582 116.617 C 214.443 116.164 214.155 115.562 213.954 115.274 C 213.69 114.907 213.324 114.621 212.849 114.392 C 212.309 114.13 211.883 114.03 211.182 113.991 C 210.514 113.966 210.038 114.017 209.547 114.168 C 209.172 114.295 208.657 114.519 208.42 114.669 C 208.181 114.834 207.779 115.16 207.539 115.397 L 207.1 115.849 C 206.473 114.871 206.146 114.581 205.719 114.357 C 205.217 114.106 204.893 114.043 204.025 114.005 C 203.196 113.991 202.82 114.03 202.331 114.23 Z M 118.066 118.662 C 118.102 122.414 118.14 123.169 118.327 123.646 C 118.442 123.959 118.756 124.461 119.018 124.774 C 119.283 125.089 119.786 125.478 120.125 125.64 C 120.55 125.842 121.053 125.956 121.742 126.005 C 122.509 126.055 122.924 126.017 123.5 125.829 C 124.065 125.654 124.417 125.44 124.908 124.962 L 125.574 124.337 L 125.574 125.779 L 128.836 125.779 L 128.836 114.23 L 125.574 114.23 C 125.574 121.599 125.574 121.711 125.296 122.265 C 125.133 122.578 124.843 122.942 124.631 123.08 C 124.429 123.229 124.015 123.381 123.728 123.431 C 123.427 123.482 122.961 123.47 122.685 123.394 C 122.41 123.331 122.045 123.144 121.882 122.993 C 121.733 122.829 121.531 122.478 121.454 122.201 C 121.354 121.874 121.306 120.382 121.306 117.97 L 121.306 114.23 L 118.028 114.23 L 118.066 118.662 Z M 216.83 120.017 L 216.83 125.792 L 220.094 125.792 L 220.094 114.242 L 216.83 114.242 L 216.83 120.017 Z M 157.329 140.416 L 157.329 148.764 C 158.535 148.801 159.275 148.813 159.741 148.813 L 160.582 148.826 L 160.593 132.067 L 157.329 132.067 L 157.329 140.416 Z M 120.175 132.407 C 119.936 132.533 119.609 132.821 119.447 133.073 C 119.271 133.335 119.159 133.685 119.159 133.975 C 119.159 134.239 119.247 134.616 119.358 134.829 C 119.459 135.029 119.721 135.318 119.949 135.484 C 120.237 135.67 120.55 135.757 121.003 135.757 C 121.469 135.757 121.755 135.695 121.994 135.52 C 122.182 135.381 122.446 135.119 122.573 134.957 C 122.748 134.727 122.823 134.441 122.81 133.975 C 122.81 133.575 122.722 133.183 122.585 132.984 C 122.459 132.809 122.16 132.545 121.895 132.418 C 121.631 132.294 121.241 132.194 121.015 132.194 C 120.791 132.194 120.412 132.281 120.175 132.407 Z M 88.127 133.033 L 86.785 133.073 C 86.785 148.285 86.797 148.764 86.998 148.801 C 87.122 148.813 88.693 148.826 90.487 148.813 C 93.386 148.788 93.852 148.749 94.755 148.512 C 95.307 148.361 96.124 148.06 96.561 147.835 C 97.078 147.596 97.692 147.132 98.194 146.629 C 98.734 146.076 99.162 145.524 99.426 144.96 C 99.65 144.494 99.928 143.729 100.04 143.265 C 100.178 142.712 100.252 141.883 100.265 140.854 C 100.265 139.725 100.203 139.047 100.051 138.47 C 99.928 138.018 99.663 137.315 99.475 136.9 C 99.274 136.486 98.922 135.897 98.683 135.608 C 98.459 135.318 97.956 134.854 97.58 134.565 C 97.19 134.29 96.462 133.902 95.948 133.699 C 95.42 133.5 94.604 133.286 94.127 133.211 C 93.638 133.121 92.396 133.048 91.366 133.033 C 90.325 133.021 88.87 133.021 88.127 133.033 Z M 90.576 135.921 L 92.031 135.973 C 93.211 136.009 93.611 136.085 94.127 136.31 C 94.465 136.462 94.943 136.775 95.169 137.002 C 95.398 137.212 95.71 137.629 95.847 137.904 C 95.985 138.18 96.186 138.682 96.272 139.034 C 96.363 139.374 96.437 140.228 96.437 140.917 C 96.437 141.608 96.363 142.449 96.272 142.801 C 96.186 143.139 95.985 143.654 95.847 143.929 C 95.71 144.207 95.358 144.632 95.081 144.897 C 94.793 145.159 94.403 145.435 94.215 145.513 C 94.027 145.587 93.537 145.725 93.124 145.813 C 92.709 145.913 91.956 145.989 90.55 146.001 L 90.564 140.956 L 90.576 135.921 Z M 130.58 137.064 C 130.344 137.126 129.916 137.276 129.637 137.427 C 129.364 137.565 128.898 137.943 128.608 138.255 L 128.07 138.846 L 128.07 137.212 L 124.806 137.212 L 124.806 148.826 L 128.007 148.826 C 128.134 141.571 128.16 141.256 128.397 140.792 C 128.573 140.453 128.836 140.189 129.211 139.989 C 129.637 139.775 129.928 139.713 130.429 139.737 C 130.959 139.775 131.157 139.851 131.458 140.164 C 131.723 140.428 131.872 140.728 131.961 141.231 C 132.035 141.608 132.1 143.452 132.1 145.337 L 132.088 148.764 C 134.547 148.801 135.275 148.788 135.312 148.764 C 135.339 148.724 135.365 147.005 135.365 144.934 C 135.365 141.268 135.376 141.144 135.638 140.692 C 135.814 140.402 136.116 140.114 136.417 139.963 C 136.694 139.838 137.133 139.725 137.396 139.725 C 137.659 139.725 138.05 139.8 138.276 139.902 C 138.501 140.014 138.791 140.278 138.928 140.503 C 139.166 140.879 139.191 141.169 139.215 144.897 L 139.241 148.886 C 139.681 148.788 140.424 148.764 141.163 148.764 L 142.504 148.764 C 142.429 140.278 142.417 139.989 142.166 139.347 C 142.017 138.959 141.702 138.432 141.463 138.154 C 141.224 137.856 140.76 137.516 140.371 137.339 C 139.808 137.089 139.493 137.038 138.551 137.038 C 137.599 137.038 137.322 137.089 136.707 137.378 C 136.304 137.565 135.702 137.968 135.351 138.281 L 134.722 138.846 C 134.46 138.306 134.207 137.993 134.02 137.816 C 133.82 137.629 133.431 137.378 133.153 137.265 C 132.878 137.153 132.288 137.038 131.835 137.016 C 131.397 136.988 130.83 137.016 130.58 137.064 Z M 177.715 137.076 C 177.377 137.14 176.836 137.276 176.524 137.39 C 176.221 137.516 175.718 137.779 175.419 138.006 C 175.13 138.219 174.739 138.596 174.577 138.846 C 174.413 139.086 174.188 139.536 174.088 139.851 C 173.975 140.151 173.885 140.54 173.885 140.692 C 173.885 140.967 173.924 140.98 175.455 140.98 L 177.025 140.98 C 177.126 140.441 177.288 140.126 177.465 139.939 C 177.64 139.751 178.003 139.536 178.28 139.472 C 178.556 139.399 178.997 139.374 179.259 139.424 C 179.522 139.461 179.862 139.575 180.012 139.674 C 180.161 139.762 180.376 140.037 180.477 140.289 C 180.59 140.528 180.663 140.967 180.663 141.256 L 180.677 141.796 C 177.991 141.934 176.875 142.059 176.459 142.173 C 176.045 142.285 175.544 142.462 175.33 142.574 C 175.13 142.675 174.766 142.913 174.515 143.1 C 174.277 143.291 173.936 143.716 173.775 144.057 C 173.522 144.558 173.46 144.871 173.46 145.624 C 173.46 146.366 173.522 146.69 173.775 147.18 C 173.936 147.518 174.301 147.984 174.577 148.222 C 174.852 148.449 175.391 148.737 175.768 148.851 C 176.185 148.976 176.875 149.051 177.465 149.051 C 178.204 149.038 178.643 148.963 179.096 148.764 C 179.447 148.611 179.936 148.324 180.2 148.123 L 180.663 147.759 L 180.663 148.764 C 183.126 148.801 183.853 148.788 183.89 148.764 C 183.915 148.724 183.939 146.829 183.939 144.558 C 183.939 141.294 183.89 140.278 183.752 139.787 C 183.653 139.435 183.414 138.934 183.212 138.658 C 183.013 138.382 182.66 138.018 182.421 137.842 C 182.184 137.68 181.692 137.427 181.331 137.315 C 180.966 137.19 180.149 137.064 179.51 137.027 C 178.871 137.002 178.067 137.027 177.715 137.076 Z M 178.154 143.942 C 178.266 143.904 178.871 143.88 180.663 143.868 L 180.641 144.67 C 180.615 145.236 180.539 145.576 180.351 145.813 C 180.214 146.001 179.873 146.278 179.599 146.416 C 179.234 146.616 178.871 146.69 178.243 146.69 C 177.44 146.69 177.364 146.666 177.025 146.278 C 176.786 146.013 176.649 145.738 176.649 145.498 C 176.649 145.285 176.735 144.96 176.825 144.77 C 176.923 144.582 177.213 144.331 177.489 144.219 C 177.752 144.092 178.055 143.981 178.154 143.942 Z M 100.831 137.402 C 100.831 137.505 101.146 138.62 101.534 139.876 C 101.923 141.132 102.4 142.737 102.612 143.427 C 102.813 144.118 103.115 145.095 103.279 145.624 C 103.441 146.138 103.719 147.045 103.895 147.633 C 104.156 148.487 104.283 148.712 104.507 148.777 C 104.66 148.826 105.413 148.838 106.166 148.801 L 107.546 148.724 C 108.777 144.52 109.215 142.988 109.328 142.611 C 109.466 142.135 109.556 141.973 109.618 142.11 C 109.667 142.21 109.918 143.05 110.168 143.994 C 110.421 144.92 110.822 146.39 111.048 147.256 L 111.475 148.826 C 112.278 148.826 113.005 148.813 113.609 148.788 L 114.701 148.764 C 115.555 146.089 116.045 144.545 116.345 143.617 C 116.635 142.675 117.199 140.931 117.576 139.725 C 117.964 138.507 118.278 137.451 118.278 137.367 C 118.278 137.252 117.891 137.202 116.748 137.202 L 115.203 137.202 C 114.361 140.177 113.884 141.833 113.609 142.801 C 113.345 143.766 113.095 144.582 113.07 144.62 C 113.044 144.646 112.945 144.369 112.843 143.994 C 112.729 143.603 112.354 142.173 112.003 140.792 C 111.638 139.41 111.298 138.031 111.237 137.742 L 111.123 137.212 L 108.361 137.212 C 107.986 138.52 107.507 140.203 107.057 141.796 C 106.591 143.378 106.215 144.682 106.203 144.696 C 106.178 144.708 106.065 144.319 105.94 143.817 C 105.815 143.328 105.537 142.299 105.338 141.546 C 105.136 140.78 104.798 139.5 104.573 138.682 L 104.156 137.202 C 101.105 137.212 100.831 137.24 100.831 137.402 Z M 119.447 143.016 L 119.473 148.826 L 122.609 148.826 L 122.674 137.212 L 119.41 137.212 L 119.447 143.016 Z M 144.426 141.758 L 144.463 146.326 C 145.091 147.572 145.403 147.947 145.844 148.272 C 146.182 148.523 146.673 148.801 146.913 148.863 C 147.15 148.94 147.804 149.002 148.355 149.002 C 148.983 149.002 149.597 148.926 149.987 148.788 C 150.388 148.65 150.853 148.349 151.266 147.947 L 151.921 147.306 L 151.931 148.749 L 155.195 148.749 L 155.195 137.202 L 151.931 137.202 C 151.921 142.699 151.87 144.52 151.807 144.794 C 151.746 145.073 151.58 145.435 151.456 145.612 C 151.329 145.786 150.979 146.051 150.664 146.214 C 150.364 146.366 149.886 146.491 149.609 146.491 C 149.335 146.491 148.908 146.39 148.681 146.278 C 148.441 146.151 148.13 145.887 147.991 145.699 C 147.739 145.36 147.726 145.135 147.663 141.308 L 147.601 137.265 L 144.388 137.19 L 144.426 141.758 Z" fill="#001e3d" fill-rule="evenodd" style="stroke-width: 1;"></path></g></svg>