<svg xmlns="http://www.w3.org/2000/svg" clip-rule="evenodd" fill-rule="evenodd" height="45mm" image-rendering="optimizeQuality" shape-rendering="geometricPrecision" text-rendering="geometricPrecision" viewBox="0 0 990.5 990.5" width="45mm"><g fill="#002147"><path d="m157.07 495.25c0-186.77 151.41-338.18 338.18-338.18s338.18 151.41 338.18 338.18-151.41 338.18-338.18 338.18-338.18-151.41-338.18-338.18zm-23.83 0c0 199.93 162.08 362.01 362.01 362.01s362.01-162.08 362.01-362.01-162.08-362.01-362.01-362.01-362.01 162.08-362.01 362.01z" fill="#002147"/><path d="m21.12 495.25c0-261.86 212.28-474.13 474.13-474.13 261.86 0 474.13 212.28 474.13 474.13 0 261.86-212.28 474.13-474.13 474.13-261.86 0-474.13-212.28-474.13-474.13zm474.13-495.25c-273.52 0-495.25 221.73-495.25 495.25s221.73 495.25 495.25 495.25 495.25-221.73 495.25-495.25-221.73-495.25-495.25-495.25z" fill="#002147"/><path d="m792.31 748.17 24.82-9.03 24.81-9.03-4.58 26.01-4.58 26.01-20.23-16.97-20.23-16.97zm10.43-18.06 24.82 9.03 24.82 9.03-20.23 16.97-20.23 16.97-4.59-26.01-4.58-26.01zm19.6-7.13 13.2 22.87 13.2 22.87h-26.41-26.41l13.2-22.87 13.2-22.87z" fill="#002147"/><path d="m130.77 748.17 24.82-9.03 24.82-9.03-4.58 26.01-4.59 26.01-20.23-16.97-20.23-16.97zm10.43-18.06 24.81 9.03 24.82 9.03-20.23 16.97-20.23 16.97-4.58-26.01-4.58-26.01zm19.6-7.13 13.2 22.87 13.2 22.87h-26.41-26.41l13.2-22.87 13.2-22.87z" fill="#002147"/><path d="m130.78 639.69c-4.04-10.04-12.41-13.39-19.36-10.6-5.92 2.38-8.06 6.9-8.05 12.88l-.01 6.28c-.03 4.2.18 7.33-2.39 8.36-2.38.96-4.62-.53-5.94-3.81-1.14-2.83-1.08-6.22-.2-9.78l-8.13-2.56c-1.9 4.95-1.86 10.61.16 15.63 3.52 8.75 11.54 12.7 18.48 9.9 6.11-2.46 8.06-8.03 8.12-13.06l.05-6.37c.07-4.29-.05-7 2.59-8.06 2.51-1.01 4.83.3 6.41 4.22 1.47 3.67 1.65 8.38.2 12.4l8.19 2.53c2.47-5.93 2.15-12.3-.13-17.96zm-15.48-44.24-6.59-28.22-8.37 1.95 4.27 18.3-10.13 2.36-3.5-14.99-8.3 1.94 3.5 14.99-8.84 2.06-4.11-17.62-8.37 1.95 6.43 27.55 44.03-10.27zm-10.78-59.15-.77-10.16-12.1.92-7.31-4.73 18.17-12.44-.85-11.13-25.88 18.17-19.01-12.25.85 11.2 19.48 12.01.02.28-18.46 1.41.77 10.16 45.08-3.43zm.74-81.06c.93-12.17-7.29-21.14-22.02-22.26-14.66-1.12-23.8 6.53-24.72 18.7-.93 12.17 6.88 21.11 21.6 22.23 14.73 1.12 24.21-6.5 25.13-18.67zm-8.78-.67c-.47 6.15-6.5 9.59-15.56 8.9-8.99-.68-14.08-4.97-13.62-11.12.47-6.15 6.16-9.61 15.14-8.93 9.06.69 14.5 5 14.03 11.15zm16.19-49.96 7.55-27.05-8.28-2.31-4.81 17.23-35.26-9.85-2.74 9.82zm.87-74.11c-3.59-3-7.91-6.24-11.81-9.22l.11-.25c4.78.87 10.16 1.93 14.78 2.65l4.22.77-3.97 8.78-3.33-2.72zm14.1 24.34 4.29-9.48-8.65-6.96 5.69-12.57 10.94 1.9 4.46-9.85-47.02-5.75-5.06 11.18 35.36 31.52zm29.88-60.67 5.47-8.6-15.92-10.12 8.37-13.17 15.92 10.12 5.5-8.66-38.16-24.25-5.5 8.66 14.69 9.33-8.37 13.17-14.69-9.34-5.47 8.6 38.16 24.25zm71.5-88.06 7.75-6.73-24.02-27.63 9.37-8.14-5.64-6.49-26.48 23.02 5.64 6.49 9.37-8.14 24.02 27.63zm40.57-32.36 8.3-5.92-26.26-36.8-8.3 5.92zm36.32-23.09 8.73-4.4-7.21-14.3c-2.4-4.77-5.89-9.84-8.64-14.05l.25-.12c2.83 2.53 5.82 5.06 8.61 7.07l20.36 14.66 9.54-4.81-20.35-40.37-8.73 4.4 7.21 14.3c2.4 4.77 5.96 9.96 8.58 14.08l-.25.13c-2.83-2.53-5.75-5.1-8.55-7.1l-20.36-14.66-9.54 4.81 20.35 40.37zm81.88-32.26c6.06-1.76 10.64-5.62 12.78-9.42l-5.81-19.97-15.85 4.61 2.32 7.99 7.19-2.09 2.17 7.46c-.81 1.17-2.48 2.16-4.27 2.69-8.12 2.36-13.69-1.65-16.29-10.57-2.54-8.72.66-15.36 7.39-17.31 3.73-1.08 6.34-.54 9.1.75l3.41-7.42c-3.76-2.23-9.04-3.51-15.3-1.69-11.59 3.37-18.73 14.54-14.55 28.93 4.24 14.58 15.79 19.53 27.71 16.06zm64.93-12.84c6.26-.75 11.41-3.81 14.15-7.22l-2.48-20.65-16.38 1.97.99 8.26 7.44-.89.93 7.71c-.99 1.03-2.8 1.73-4.66 1.95-8.4 1.01-13.24-3.86-14.35-13.08-1.08-9.02 3.15-15.04 10.11-15.88 3.86-.46 6.35.5 8.86 2.22l4.57-6.76c-3.34-2.81-8.34-4.93-14.82-4.16-11.98 1.44-20.85 11.3-19.07 26.17 1.81 15.08 12.4 21.84 24.72 20.36zm46.27-3.18 10.19.33 1.48-45.18-10.19-.33-1.48 45.19zm78.49 8.77 9.93 2.29 10.17-44.05-9.93-2.29-10.16 44.05zm41.65 10.95 26.2 10.1 3.09-8.02-16.69-6.44 13.17-34.16-9.51-3.67-16.26 42.18zm53.85 21.93 7.91 4.61 8.35-14.31c2.24-3.83 5.42-10.81 7.18-14.92l.24.14-2.96 12.08-3.26 18.09 5.15 3.01 14.21-11.69 9.19-8.45.24.14c-2.72 3.55-7.28 9.72-9.52 13.55l-8.36 14.31 8.08 4.72 22.79-39.05-9.82-5.73-16.25 13.8c-2.14 1.88-4.1 3.87-6.29 5.96l-.24-.14c.75-2.94 1.45-5.65 2.04-8.45l3.91-21-9.82-5.73-22.79 39.05zm76.19 52.6c8.85 7.58 17.73 6.69 27.34-4.53l16.15-18.85-7.48-6.41-16.83 19.64c-5.5 6.43-9.61 6.74-13.45 3.45-3.85-3.29-4.06-7.31 1.45-13.73l16.82-19.64-7.79-6.67-16.15 18.85c-9.61 11.22-8.96 20.26-.06 27.89zm59.85 62.12 16.84 23.59 7-4.99-10.92-15.3 8.47-6.04 8.94 12.53 6.94-4.95-8.94-12.53 7.39-5.28 10.51 14.73 7-4.99-16.43-23.03zm32.54 50.57 4.59 9.1 10.83-5.46 8.56 1.58-12.06 18.43 5.03 9.97 17-26.66 22.25 4.08-5.06-10.03-22.59-3.68-.12-.25 16.53-8.33-4.59-9.1zm29.78 75.36c3.28 11.75 14.07 17.38 28.3 13.41 14.16-3.96 20.13-14.26 16.85-26.02-3.28-11.75-13.67-17.49-27.89-13.52-14.23 3.97-20.53 14.38-17.25 26.13zm8.48-2.37c-1.66-5.94 2.84-11.23 11.59-13.68 8.68-2.42 14.93-.14 16.59 5.8 1.66 5.95-2.5 11.14-11.19 13.56-8.75 2.45-15.34.25-17-5.69zm3.75 52.07 1.16 9.71 15.91-1.91c5.3-.64 11.26-2.19 16.15-3.33l.03.28c-3.35 1.8-6.74 3.74-9.58 5.69l-20.72 14.15 1.27 10.6 44.89-5.39-1.16-9.71-15.9 1.91c-5.3.64-11.4 2.21-16.16 3.27l-.03-.28c3.35-1.8 6.75-3.67 9.59-5.62l20.72-14.15-1.27-10.6-44.89 5.39zm2.75 86.37c-.93 12.17 7.29 21.14 22.02 22.26 14.66 1.12 23.79-6.53 24.72-18.7s-6.87-21.11-21.6-22.23-24.21 6.5-25.14 18.67zm8.78.67c.47-6.15 6.5-9.59 15.56-8.9 8.99.68 14.08 4.97 13.62 11.12-.47 6.15-6.16 9.61-15.14 8.93-9.06-.69-14.5-5-14.03-11.15zm-14.36 50.2-2.06 8.92 16.15 3.73c4.32 1 11.93 1.97 16.38 2.43l-.06.27-12.42.76-18.24 2.27-1.34 5.81 15.39 10.1 10.79 6.26-.06.27c-4.2-1.54-11.44-4.07-15.77-5.06l-16.15-3.73-2.11 9.12 44.05 10.16 2.56-11.08-18-11.41c-2.43-1.49-4.91-2.77-7.56-4.23l.06-.27c3.03-.16 5.83-.29 8.67-.56l21.21-2.5 2.56-11.08-44.05-10.17zm-21.69 71.71-3.67 9.51 42.18 16.26 3.67-9.51z" fill-rule="nonzero" fill="#002147"/><path d="m231.22 851.63 10.77 7.82c10.72 7.78 22.18 7.1 31.3-5.47s5.97-23.34-5.2-31.44l-10.33-7.49-26.55 36.59zm13.1-.69 16.86-23.23 1.57 1.14c6.23 4.52 8.43 10.23 2.07 18.98-6.35 8.75-12.7 8.77-18.93 4.25zm57.36 43.35 11.81 5.35 12.32-16.96c2.03-2.81 3.96-5.89 5.92-9.04l.25.11c-1.14 3.52-2.12 7.03-2.89 10.42l-4.61 20.44 12 5.43 26.03-37.84-9.1-4.12-11.6 17.89c-2.45 4.07-4.99 8.17-7.49 12.52l-.25-.11c1.3-4.89 2.42-9.71 3.51-14.32l4.52-21.09-8.28-3.75-13.05 17.23c-2.83 3.9-5.56 7.91-8.38 12.12l-.25-.11c1.62-4.75 2.99-9.3 4.4-13.92l5.98-20.44-9.67-4.37-11.19 44.56zm81.71 30.16 9.93 2.29 10.17-44.05-9.93-2.29zm54.44 11 9.13.7 1.26-16.53c.34-4.42.16-12.09-.06-16.55l.28.02 2.62 12.16 4.98 17.69 5.95.45 7.68-16.73 4.57-11.61.28.02c-.89 4.38-2.3 11.92-2.64 16.35l-1.26 16.52 9.33.71 3.44-45.08-11.34-.87-8.58 19.51c-1.1 2.63-2 5.27-3.05 8.11l-.28-.02c-.61-2.97-1.16-5.72-1.86-8.49l-5.66-20.6-11.34-.87-3.44 45.08zm105.21 1.43c11.57-1.33 16.97-8.44 15.28-23.12l-2.84-24.66-9.78 1.12 2.96 25.7c.97 8.4-1.59 11.63-6.62 12.21s-8.12-2-9.08-10.4l-2.96-25.69-10.19 1.17 2.84 24.66c1.69 14.67 8.76 20.35 20.4 19.01zm61.79-12.05 27.07-7.47-2.29-8.29-17.25 4.76-9.74-35.29-9.83 2.71 12.03 43.58zm68.39-23.42 9.32-4.13-6.52-14.71.68-32.16-9.76 4.33.48 11.17c.24 3.61.36 6.97.56 10.67l-.25.11c-2.55-2.66-4.89-5.04-7.41-7.64l-7.89-7.88-10.02 4.44 24.29 21.09zm51.35-53.54c-1.42-4.46-3.32-9.51-5.02-14.12l.23-.15c3.57 3.3 7.54 7.08 11.05 10.17l3.15 2.91-8.06 5.28zm-1.16 28.11 8.7-5.7-3.57-10.51 11.55-7.56 8.21 7.47 9.05-5.93-36.6-30.08-10.27 6.72 12.93 45.57z" fill-rule="nonzero" fill="#002147"/><path d="m495.31 390.24c27.23-21.47 63.12-29.07 103.9-28.85h63.67v267.73h-139.71v-27.94h109.79v-.96h.06v-196.47h-40.34c-50.57-.75-79.32 30.35-97.41 77.05-18.09-46.7-46.84-77.8-97.41-77.05h-40.34v196.47h52.34c48.75 0 76.18-20.76 85.37-58.65v87.54h-167.57v-267.73h63.67c40.78-.22 76.67 7.38 103.9 28.85h.06z" fill="#002147"/><path d="m662.88 331.53h-48.31c-53.2 0-95.36 18.39-115.36 37.42-1.12 1.8 24.97-20.08 90.55-20.08h73.11v-17.34z" fill="#002147"/><path d="m651.33 302.64c-12.8 0-25.61-.21-38.41 0-60.39.99-92.79 23.34-112.79 42.38-1.12 1.79 32.83-25.04 87.98-25.04h63.22z" fill="#002147"/><path d="m327.68 331.53h48.31c53.2 0 95.36 18.39 115.36 37.42 1.12 1.8-24.97-20.08-90.55-20.08h-73.11v-17.34z" fill="#002147"/><path d="m339.23 302.64c12.8 0 25.61-.21 38.41 0 60.39.99 92.79 23.34 112.79 42.38 1.12 1.79-32.83-25.04-87.98-25.04h-63.22z" fill="#002147"/><path d="m671.49 421.09v148.31c1.03-.75 1.64-1.39 2.06-2.05.4-.99.79-1.98 1.18-2.98.17-.5.36-1.07.62-1.71.12-.29.24-.59.35-.88 7.62-20.7 11.78-43.07 11.78-66.42 0-25.55-4.99-49.95-14.04-72.25-.46-.72-1.06-1.37-1.95-2.02z" fill="#002147"/><path d="m319.01 569.64v-148.31c-1.03.75-1.64 1.39-2.06 2.05-.4.99-.79 1.98-1.18 2.98-.17.5-.36 1.07-.62 1.71-.12.29-.24.59-.35.88-7.62 20.7-11.78 43.07-11.78 66.42 0 25.56 4.99 49.95 14.04 72.25.46.72 1.06 1.37 1.95 2.02z" fill="#002147"/><path d="m494.88 284.87c-7.99 0-14.47-6.48-14.47-14.47 0-3.61 1.33-6.92 3.52-9.45 1.81-2.47 4.51-4.26 8.12-4.74.92-.18 1.86-.28 2.83-.28 7.99 0 14.47 6.48 14.47 14.47s-6.48 14.47-14.47 14.47zm26.73-14.47c0-14.76-11.97-26.73-26.73-26.73s-26.73 11.97-26.73 26.73 11.97 26.73 26.73 26.73 26.73-11.97 26.73-26.73z" fill="#002147"/><path d="m284.76 495.73c0 7.99-6.48 14.47-14.47 14.47-3.61 0-6.92-1.32-9.45-3.52-2.47-1.81-4.26-4.51-4.74-8.12-.18-.92-.28-1.86-.28-2.83 0-7.99 6.48-14.47 14.47-14.47s14.47 6.48 14.47 14.47zm-14.47-26.73c-14.76 0-26.73 11.97-26.73 26.73s11.97 26.73 26.73 26.73 26.73-11.97 26.73-26.73-11.97-26.73-26.73-26.73z" fill="#002147"/><path d="m495.61 705.86c7.99 0 14.47 6.48 14.47 14.47 0 3.61-1.33 6.92-3.52 9.45-1.81 2.47-4.51 4.26-8.12 4.74-.92.18-1.86.28-2.83.28-7.99 0-14.47-6.48-14.47-14.47s6.48-14.47 14.47-14.47zm-26.73 14.47c0 14.76 11.97 26.73 26.73 26.73s26.73-11.97 26.73-26.73-11.97-26.73-26.73-26.73-26.73 11.97-26.73 26.73z" fill="#002147"/><path d="m495.25 330.39h8.97c10.5-8.71 22.54-15.8 35.33-22.09-18.96-4.06-30.68-5.3-44.3-5.16-13.62-.14-25.34 1.1-44.3 5.16 12.8 6.3 24.84 13.38 35.33 22.09z" fill="#002147"/><path d="m443.6 651.87-24.04-10.63c-5.77-3.63-6.34-2.5-14.84-2.5-11.56 0-23.11 0-34.67 0 1.45 2.17 2.88 3.66 5.2 5.39 2.63 1.96 3.33 2.7 5.95 4.64 14.28 10.54 29.17 19.45 45.09 26.09 21.4 8.23 44.65 12.73 68.95 12.73 23.74 0 46.48-4.3 67.47-12.17 2.04-.84 4.06-1.72 6.05-2.65 17.58-8.21 24.29-11.87 39.97-23.6 3.8-2.84 9.36-6.92 11.71-10.44-11.24 0-22.47 0-33.71 0-19.2 0-8.06.08-26.66 8.01-36.82 15.71-78.15 17.93-116.49 5.11z" fill="#002147"/><path d="m367.63 590.12h35.96c-27.16-4.54-32.43-9.44-35.96-35.96z" fill="#002147"/><path d="m622.87 590.12h-35.96c27.16-4.54 32.43-9.44 35.96-35.96z" fill="#002147"/><path d="m367.63 590.12h35.96c-27.16-4.54-32.43-9.44-35.96-35.96z" fill="#002147"/><path d="m622.87 590.12h-35.96c27.16-4.54 32.43-9.44 35.96-35.96z" fill="#002147"/><path d="m367.63 413.39h35.96c-27.16 4.53-32.43 9.44-35.96 35.96z" fill="#002147"/><path d="m622.87 413.39h-35.96c27.16 4.53 32.43 9.44 35.96 35.96z" fill="#002147"/><path d="m720.21 510.2c-7.99 0-14.47-6.48-14.47-14.47 0-3.61 1.32-6.92 3.51-9.45 1.81-2.47 4.52-4.26 8.12-4.74.92-.18 1.86-.28 2.83-.28 7.99 0 14.47 6.48 14.47 14.47s-6.48 14.47-14.47 14.47zm26.73-14.47c0-14.76-11.97-26.73-26.73-26.73s-26.73 11.97-26.73 26.73 11.97 26.73 26.73 26.73 26.73-11.97 26.73-26.73z" fill="#002147"/></g></svg>