<svg xmlns="http://www.w3.org/2000/svg" viewBox=".118 236.093 497.509 263.907"><path d="m-.023 236.142h5.805v264.275c-1.916 0-3.831 0-5.805 0 0-87.21 0-174.422 0-264.275z" fill="#002147"/><path d="m57.06 406.41c23.607 0 23.607 0 29.448 5.036.34.395.679.792 1.028 1.199.494.55.494.55.998 1.11 3.477 4.782 4.405 10.332 3.84 16.157-1.048 5.707-2.948 10.359-7.548 14.115-8.185 5.313-18.526 3.631-27.766 3.631 0-13.612 0-27.224 0-41.248zm9.191 34.054c4.723 0 7.002.654 10.743-1.349 2.776-1.823 4.465-4.081 5.221-7.284.464-5.479.667-10.705-2.933-15.139-3.752-3.087-3.752-3.087-13.031-3.087z" fill="#002147"/><path d="m169.29 406.41h12.577c1.419 3.375 2.828 6.734 4.137 10.149.146.382.293.764.444 1.158.306.795.61 1.591.914 2.385.467 1.22.936 2.438 1.407 3.656.297.777.596 1.555.893 2.334.211.543.211.543.426 1.099.551 1.451.971 2.595.971 4.16h.967c.042-.372.084-.744.127-1.127.479-2.35 1.323-4.502 2.185-6.736.181-.474.362-.948.549-1.437.381-.997.763-1.994 1.146-2.99.589-1.531 1.173-3.065 1.759-4.598.37-.968.741-1.937 1.112-2.907.176-.46.352-.92.533-1.396.244-.634.244-.634.495-1.281.143-.373.287-.747.434-1.132.368-.857.368-.857.851-1.337h12.094v41.248c-3.033 0-6.067 0-9.191 0-.239-13.771-.239-13.771-.484-27.819-1.027 2.632-2.056 5.263-3.114 7.974-2.601 6.645-5.249 13.265-8.012 19.845-1.117 0-2.235 0-3.386 0-.119-.301-.238-.602-.361-.913-1.24-3.134-2.48-6.27-3.72-9.406-.463-1.17-.925-2.34-1.388-3.51-.665-1.683-1.33-3.365-1.996-5.046-.206-.524-.413-1.046-.626-1.585-.29-.734-.29-.734-.587-1.484-.169-.428-.339-.857-.514-1.301-.48-1.205-.965-2.41-1.451-3.614-.16 8.863-.319 17.727-.484 26.859-2.873 0-5.747 0-8.707 0 0-13.612 0-27.224 0-41.248z" fill="#002147"/><path d="m93.341 406.41h9.675c.211.969.422 1.937.639 2.935.216.989.432 1.977.649 2.964.145.662.289 1.325.433 1.987 1.415 6.514 2.999 12.971 4.568 19.453 2.234-9.022 4.469-18.044 6.772-27.339h8.224c1.295 3.614 2.205 7.269 3.084 11.002 1.274 5.322 2.633 10.604 4.172 15.857 1.197-3.357 2.061-6.719 2.842-10.192.252-1.1.504-2.201.756-3.301.126-.549.251-1.097.38-1.663.573-2.485 1.169-4.966 1.767-7.446.104-.432.208-.864.315-1.309.238-.983.475-1.965.713-2.948h8.707c-.543 4.31-.543 4.31-.975 5.834-.095.344-.19.689-.288 1.043-.101.362-.204.724-.309 1.097-.914 3.341-1.749 6.692-2.509 10.072-.885 3.925-1.803 7.841-2.752 11.751-.116.483-.234.966-.354 1.462-.81 3.335-1.645 6.663-2.487 9.989-3.353 0-6.706 0-10.159 0-.333-1.329-.333-1.329-.673-2.685-2.67-10.946-2.67-10.946-5.85-21.751-.25-.984-.25-.984-.25-2.903-.32 0-.638 0-.968 0-.072.504-.072.504-.145 1.019-.61 3.952-1.587 7.732-2.697 11.572-.346 1.223-.693 2.446-1.038 3.669-.166.585-.331 1.168-.501 1.769-.861 3.089-1.63 6.196-2.391 9.31-3.193 0-6.386 0-9.675 0-.325-1.399-.325-1.399-.655-2.827-2.038-8.75-2.038-8.75-4.289-17.448-.877-3.239-1.663-6.496-2.435-9.76-.65-2.744-1.333-5.478-2.063-8.202-.233-1.093-.233-1.093-.233-3.011z" fill="#002147"/><path d="m421.323 303.289c1.046.746 1.954 1.528 2.903 2.399.16-1.108.319-2.216.484-3.358h8.223c.022 4.016.039 8.03.05 12.046.005 1.864.012 3.729.024 5.593.01 1.8.015 3.601.018 5.402.002.686.006 1.372.01 2.057.008.964.008 1.927.008 2.889.001.548.004 1.095.007 1.659-.244 3.197-1.471 5.935-3.921 8.073-5.072 3.901-11.059 4.12-17.275 3.381-3.691-.812-6.258-2.557-8.43-5.607-.852-1.595-1.451-2.96-1.451-4.796 7.483-.516 7.483-.516 9.275.73.612.918.612.918 1.368 2.627 2.545 1.261 6.397.758 9.009-.09 1.333-1.008 1.87-1.773 2.601-3.267.174-1.608.174-1.608.09-3.268-.013-.557-.026-1.114-.039-1.688-.025-.633-.025-.633-.051-1.279-.212.191-.422.381-.639.579-3.342 2.946-5.781 4.052-10.331 3.934-3.255-.399-5.843-1.783-8.078-4.154-.442-.586-.866-1.186-1.27-1.798-.199-.288-.399-.575-.605-.872-2.213-3.895-1.981-9.371-.96-13.618 1.578-4.134 4.227-6.794 8.217-8.682 3.695-.776 7.408-.747 10.763 1.108zm-7.256 5.277c-2.018 1.7-3.07 3.251-3.87 5.755-.483 3.195.177 5.918 1.935 8.634 1.299 1.228 2.183 1.821 3.972 2.063 2.947.091 5.056-.383 7.305-2.333 1.361-1.637 1.503-3.114 1.57-5.162.001-.375.002-.739.002-1.103.006-1.388-.093-2.627-.271-4.017-.912-1.94-1.916-2.96-3.852-3.972-2.252-.787-4.559-.603-6.791.135z" fill="#002147"/><path d="m385.526 303.289c1.045.746 1.953 1.528 2.902 2.399.16-1.108.32-2.216.484-3.358h8.224c.021 4.016.04 8.03.05 12.046.005 1.864.012 3.729.023 5.593.01 1.8.016 3.601.018 5.402.002.686.006 1.372.011 2.057.007.964.008 1.927.008 2.889.002.548.004 1.095.006 1.659-.243 3.197-1.471 5.935-3.92 8.073-5.073 3.901-11.06 4.12-17.275 3.381-3.692-.812-6.258-2.557-8.43-5.607-.852-1.595-1.451-2.96-1.451-4.796 7.482-.516 7.482-.516 9.274.73.612.918.612.918 1.368 2.627 2.545 1.261 6.397.758 9.01-.09 1.332-1.008 1.87-1.773 2.6-3.267.175-1.608.175-1.608.091-3.268-.013-.557-.026-1.114-.04-1.688-.025-.633-.025-.633-.051-1.279-.211.191-.422.381-.638.579-3.342 2.946-5.782 4.052-10.331 3.934-3.256-.399-5.843-1.783-8.078-4.154-.442-.586-.866-1.186-1.27-1.798-.2-.288-.399-.575-.605-.872-2.214-3.895-1.981-9.371-.96-13.618 1.577-4.134 4.227-6.794 8.217-8.682 3.695-.776 7.408-.747 10.763 1.108zm-7.257 5.277c-2.018 1.7-3.07 3.251-3.869 5.755-.484 3.195.176 5.918 1.935 8.634 1.298 1.228 2.183 1.821 3.972 2.063 2.946.091 5.056-.383 7.304-2.333 1.361-1.637 1.503-3.114 1.571-5.162.001-.375.001-.739.001-1.103.006-1.388-.093-2.627-.271-4.017-.911-1.94-1.915-2.96-3.851-3.972-2.253-.787-4.559-.603-6.792.135z" fill="#002147"/><path d="m332.994 406.355c.756.004.756.004 1.528.008.545.002 1.088.003 1.649.004.572.005 1.145.009 1.735.013.575.002 1.149.004 1.742.007 1.425.005 2.85.013 4.275.023 1.852 4.234 3.236 8.625 4.662 13.012.415 1.279.832 2.558 1.251 3.836 1.301 3.985 2.579 7.975 3.811 11.983.852 2.715 1.786 5.405 2.712 8.097.143.424.288.847.436 1.282.13.378.259.756.392 1.144.281.935.281.935.281 1.894-3.352 0-6.705 0-10.158 0-.4-1.326-.799-2.651-1.21-4.017-.126-.417-.253-.834-.382-1.264-.098-.328-.197-.657-.299-.996-.1-.336-.202-.673-.306-1.02-.223-.856-.223-.856-.223-1.816-5.108 0-10.216 0-15.479 0-.479 2.374-.479 2.374-.968 4.796-.428 1.468-.935 2.876-1.451 4.317-2.874 0-5.747 0-8.708 0 .703-4.029 1.896-7.805 3.216-11.672.223-.657.445-1.314.666-1.971.58-1.719 1.164-3.437 1.748-5.154.59-1.734 1.176-3.469 1.763-5.204 1.055-3.121 2.114-6.241 3.174-9.36.378-1.115.751-2.231 1.12-3.349.174-.525.347-1.049.525-1.589.153-.465.306-.93.463-1.409.556-1.525.556-1.525 2.035-1.595zm2.302 12.953c-.181.589-.358 1.16-.533 1.731-.18.573-.355 1.129-.529 1.686-.174.563-.343 1.11-.513 1.656-.769 2.482-1.318 4.891-1.892 7.45h10.643c0-1.919 0-1.919-.338-3.201-.242-.745-.242-.745-.478-1.476-.181-.562-.356-1.108-.531-1.652-.305-.946-.609-1.893-.902-2.842-.109-.357-.214-.702-.319-1.048-.213-.691-.425-1.381-.637-2.073-.548-1.813-1.043-3.381-2.116-4.975-.546.541-.546.541-1.855 4.744z" fill="#002147"/><path d="m376.576 359.946c1.497 1.112 2.476 2.317 3.628 3.777.32.158.639.317.968.48.121-.291.241-.581.364-.88.699-1.203 1.31-1.627 2.508-2.328.334-.2.668-.399 1.011-.605 2.716-1.435 5.701-1.296 8.694-.983 2.91 1.089 5.021 3.121 6.331 5.918.46 1.326.559 2.308.552 3.706v1.424c-.006.503-.01 1.004-.016 1.521-.002.519-.003 1.036-.003 1.57-.006 1.652-.019 3.304-.031 4.956-.005 1.121-.009 2.242-.013 3.363-.01 2.746-.028 5.492-.047 8.238-2.714 0-5.428 0-8.224 0-.005-.63-.009-1.259-.014-1.907-.018-2.336-.051-4.669-.087-7.005-.013-1.01-.024-2.02-.03-3.03-.01-1.453-.032-2.906-.058-4.358 0-.452-.001-.904-.001-1.368-.032-2.513-.032-2.513-1.214-4.674-1.7-1.14-3.348-1.253-5.368-1.161-1.458.586-2.147.992-2.956 2.324-.463 1.111-.563 1.903-.585 3.102-.009.402-.019.805-.029 1.221-.008.646-.008.646-.017 1.305-.009.445-.019.889-.029 1.347-.027 1.417-.051 2.834-.073 4.252-.018.961-.038 1.923-.057 2.885-.046 2.355-.087 4.711-.125 7.067-2.714 0-5.427 0-8.223 0-.014-.922-.014-.922-.029-1.863-.037-2.282-.08-4.563-.124-6.844-.019-.987-.036-1.974-.052-2.961-.022-1.42-.049-2.839-.078-4.258-.006-.441-.012-.882-.018-1.337-.009-.412-.019-.825-.028-1.25-.007-.363-.013-.725-.021-1.098-.155-1.175-.464-1.931-1.101-2.932-1.797-1.188-3.239-1.217-5.322-.96-1.482.607-2.183 1.013-2.954 2.409-.602 1.995-.604 3.893-.632 5.964-.009.434-.019.867-.029 1.313-.028 1.378-.051 2.756-.073 4.134-.019.936-.037 1.873-.057 2.809-.047 2.292-.086 4.582-.124 6.874-2.874 0-5.748 0-8.708 0 0-9.971 0-19.943 0-30.217h8.708c.159 1.108.319 2.216.483 3.357.222-.197.444-.393.673-.595.297-.259.594-.517.899-.784.292-.256.584-.511.885-.775 3.101-2.414 7.184-2.31 10.846-1.143z" fill="#002147"/><path d="m111.028 359.858c2.036 1.184 2.825 2.097 3.598 4.345.322-.267.643-.533.973-.806.428-.348.855-.695 1.294-1.053.421-.345.842-.691 1.276-1.046 3.035-2.187 5.874-2.178 9.518-1.891 2.973.494 4.453 1.809 6.179 4.205 1.679 3.026 1.691 5.793 1.656 9.16-.002.497-.003.993-.005 1.504-.005 1.579-.017 3.157-.029 4.736-.005 1.072-.009 2.145-.013 3.218-.011 2.624-.028 5.248-.048 7.873-2.713 0-5.427 0-8.223 0-.008-.599-.014-1.196-.021-1.812-.029-2.221-.067-4.442-.107-6.663-.015-.961-.029-1.922-.04-2.883-.016-1.382-.042-2.764-.069-4.147-.003-.428-.006-.855-.009-1.297-.069-2.897-.534-4.596-2.657-6.701-2.523-.24-4.142.103-6.289 1.44-.993 1.477-1.092 1.819-1.121 3.495-.01.412-.02.826-.03 1.251-.008.665-.008.665-.016 1.344-.01.456-.019.911-.029 1.381-.029 1.456-.051 2.913-.074 4.369-.017.987-.037 1.974-.056 2.962-.046 2.42-.087 4.84-.125 7.261-2.874 0-5.747 0-8.708 0-.007-.63-.013-1.259-.021-1.907-.028-2.336-.065-4.67-.106-7.005-.016-1.01-.03-2.02-.041-3.031-.015-1.452-.04-2.905-.068-4.357-.003-.453-.005-.904-.009-1.369-.014-.634-.014-.634-.029-1.28-.008-.556-.008-.556-.016-1.123-.249-1.327-.705-1.983-1.644-2.951-2.206-.538-3.325-.663-5.473.06-1.504 1.041-1.987 1.645-2.752 3.298-.222 1.511-.235 3.01-.247 4.535-.013.65-.013.65-.026 1.313-.027 1.378-.042 2.756-.059 4.134-.016.936-.032 1.873-.05 2.809-.041 2.291-.074 4.582-.101 6.874-2.713 0-5.427 0-8.223 0 0-9.971 0-19.943 0-30.217h8.223c.159 1.266.319 2.532.483 3.837.447-.407.447-.407.902-.822.391-.353.782-.705 1.185-1.067.58-.526.58-.526 1.173-1.062 2.609-2.113 7.006-2.032 10.074-.914z" fill="#002147"/><path d="m82.377 292.893c2.91 2.043 5.064 4.155 5.795 7.698.119.739.233 1.477.332 2.218-1.412.079-2.819.135-4.233.18-.399.024-.798.049-1.21.073-1.155.029-2.14.019-3.265-.253-1.171-1.395-1.171-1.395-1.935-2.877-2.705-1.944-5.443-2.226-8.707-1.919-1.402.36-2.545.83-3.87 1.439-.778 1.543-.775 3.128-.484 4.797 2.341 2.673 5.903 2.945 9.282 3.297 5.19.653 10.282 1.801 13.848 5.846 2.154 2.869 1.802 6.118 1.541 9.562-.668 2.997-1.877 5.212-4.355 7.077-4.125 2.553-7.889 3.089-12.667 3.115-.433.01-.866.02-1.312.03-5.003.029-9.253-1.248-13.11-4.467-2.346-2.419-3.869-5.737-3.869-9.112h9.191c.33.762.658 1.523.998 2.308.841 1.624 1.31 2.407 2.811 3.508 2.894.88 6.287.821 9.252.419 1.259-.72 2.357-1.377 3.386-2.398.116-1.085.116-1.085.121-2.339.019-.636.019-.636.038-1.285-.066-1.177-.066-1.177-.74-1.986-2.33-1.677-4.93-1.872-7.703-2.244-6.195-.904-11.531-2.317-15.42-7.495-.971-2.889-.985-6.77-.186-9.734 1.692-3.223 4.796-5.492 8.138-6.782 5.641-1.641 13.141-1.595 18.333 1.324z" fill="#002147"/><path d="m221.051 406.41h9.191c.005.834.009 1.669.014 2.529.017 2.772.043 5.544.076 8.317.018 1.678.034 3.357.041 5.036.009 1.935.033 3.87.058 5.805.001.596.001 1.193.002 1.808.056 3.363.322 6.25 2.228 9.12 2.036 1.586 4.07 1.66 6.578 1.577 2.058-.245 3.457-.976 4.911-2.417 1.901-3.392 1.736-6.96 1.772-10.744.009-.603.02-1.204.029-1.825.024-1.59.044-3.181.062-4.771.019-1.627.044-3.253.068-4.881.046-3.185.088-6.369.125-9.554h9.191c.044 3.724.079 7.448.101 11.171.01 1.729.023 3.458.045 5.188.021 1.674.032 3.347.038 5.019.004.941.02 1.881.036 2.82.001 4.683-.816 9.161-3.797 12.943-4.296 4.145-9.516 4.791-15.212 4.76-5.01-.112-8.578-1.422-12.23-4.895-2.569-2.923-3.389-5.968-3.382-9.781 0-.605 0-1.21 0-1.833.003-.657.005-1.315.008-1.973 0-.674.001-1.349.002-2.024.001-1.772.006-3.545.011-5.317.006-1.81.008-3.621.011-5.431.004-3.549.012-7.098.023-10.647z" fill="#002147"/><path d="m341.454 360.755c.336.189.672.376 1.018.57.312.168.623.336.943.509 3.292 2.04 5.335 5.415 6.313 9.083.497 4.332.516 8.726-1.934 12.47-.189.334-.377.666-.571 1.008-2.196 3.44-5.796 4.934-9.588 6.187-5.592.384-10.143.157-14.664-3.477-2.992-2.798-4.937-6.095-5.332-10.2-.061-5.697.867-9.477 4.858-13.671 5.08-4.352 12.898-5.377 18.957-2.479zm-11.076 5.366c-1.591 1.342-2.87 2.702-3.624 4.662-.803 3.577-.903 7.703 1.083 10.9 1.297 1.594 2.524 2.549 4.613 2.794 2.671.047 4.573-.251 6.636-2.049 1.737-2.073 2.157-3.521 2.129-6.128-.015-.394-.029-.774-.043-1.156-.017-1.412-.018-2.82-.151-4.226-.73-2.173-1.821-3.446-3.749-4.707-2.375-.86-4.461-.894-6.894-.09z" fill="#002147"/><path d="m272.277 360.755c.337.189.673.376 1.019.57.311.168.622.336.943.509 3.292 2.04 5.335 5.415 6.313 9.083.497 4.332.516 8.726-1.935 12.47-.188.334-.377.666-.57 1.008-2.196 3.44-5.796 4.934-9.589 6.187-5.591.384-10.141.157-14.664-3.477-2.991-2.798-4.936-6.095-5.331-10.2-.06-5.697.866-9.477 4.858-13.671 5.081-4.352 12.898-5.377 18.956-2.479zm-11.075 5.366c-1.592 1.342-2.87 2.702-3.625 4.662-.802 3.577-.902 7.703 1.083 10.9 1.297 1.594 2.525 2.549 4.613 2.794 2.672.047 4.574-.251 6.636-2.049 1.739-2.073 2.158-3.521 2.129-6.128-.014-.394-.028-.774-.042-1.156-.017-1.412-.019-2.82-.152-4.226-.73-2.173-1.82-3.446-3.749-4.707-2.375-.86-4.46-.894-6.893-.09z" fill="#002147"/><path d="m182.39 304.847c2.955 2.151 4.882 5.527 5.451 9.097.504 5.088.094 9.588-3.072 13.807-2.92 3.458-6.601 5.027-11.082 5.457-5.105.226-8.992-.609-13.015-3.839-2.978-2.807-4.698-6.158-4.927-10.252-.04-.604-.08-1.206-.121-1.829.082-4.202 1.754-7.942 4.474-11.12 6.437-6.052 15.031-5.631 22.292-1.321zm-17.394 7.586c-1.119 3.025-.981 6.688-.029 9.742.932 2.056 2.298 3.573 4.323 4.617 2.141.368 4.221.173 6.289-.48 1.558-1.244 2.386-2.335 3.295-4.107.992-2.911 1.069-6.413.091-9.323-1.297-2.238-2.482-3.65-4.837-4.796-4.145-.492-6.918.762-9.132 4.347z" fill="#002147"/><path d="m188.156 348.854h27.09v7.194c-5.907 0-11.813 0-17.899 0v9.593h14.513v7.195c-4.629 0-9.26 0-14.029 0v10.072h18.382v7.195c-9.258 0-18.517 0-28.057 0 0-13.612 0-27.225 0-41.249z" fill="#002147"/><path d="m238.95 288.901h8.707c.159 5.539.319 11.079.484 16.787 1.117-.949 2.235-1.9 3.386-2.878 3.089-1.531 7.081-1.454 10.34-.42 2.72 1.18 4.216 3.447 5.328 6.11.602 2.088.471 4.236.438 6.388-.002.507-.005 1.013-.007 1.535-.008 1.608-.025 3.215-.044 4.822-.008 1.095-.015 2.189-.02 3.283-.016 2.673-.041 5.345-.071 8.02-2.714 0-5.428 0-8.224 0-.007-.6-.014-1.197-.022-1.812-.027-2.222-.064-4.443-.105-6.664-.016-.961-.029-1.921-.04-2.882-.017-1.382-.042-2.764-.069-4.147-.003-.428-.006-.856-.01-1.297-.054-2.301-.187-3.871-1.689-5.742-1.467-1.131-3.029-1.13-4.854-1.083-1.395.182-2.278.704-3.369 1.563-.994 1.477-1.092 1.82-1.123 3.495-.009.413-.019.826-.028 1.252-.009.664-.009.664-.017 1.344-.009.455-.019.911-.029 1.381-.029 1.456-.051 2.912-.073 4.369-.019.987-.037 1.974-.057 2.961-.047 2.421-.087 4.84-.125 7.262-2.873 0-5.747 0-8.707 0 0-14.404 0-28.807 0-43.647z" fill="#002147"/><path d="m118.104 304.069c3.468 2.904 5.267 6.784 5.714 11.212v4.316c-7.184 0-14.368 0-21.769 0 1.003 4.422 1.003 4.422 3.87 6.715 1.906.945 4.211.697 6.289.48 1.952-1.106 2.366-1.814 3.386-3.837h7.74c-.499 3.462-1.035 4.936-3.537 7.284-4.505 3.012-9.588 3.249-14.845 2.788-3.774-.778-6.66-2.928-9.191-5.756-2.795-4.223-2.873-9.004-2.419-13.909.413-1.634 1.022-2.905 1.935-4.317.163-.297.328-.594.496-.901 4.691-7.662 15.13-7.714 22.331-4.075zm-13.153 4.107c-2.111 1.897-2.427 3.315-2.902 6.145h13.545c0-1.918 0-1.918-.303-3.087-.899-1.663-1.855-2.812-3.567-3.627-2.386-.372-4.52-.315-6.773.569z" fill="#002147"/><path d="m229.91 304.309c3.079 3.266 3.515 6.718 3.424 11.048-.003.494-.006.989-.009 1.498-.011 1.563-.035 3.127-.06 4.69-.01 1.066-.018 2.133-.026 3.199-.022 2.602-.055 5.202-.095 7.804-2.714 0-5.427 0-8.223 0-.24-1.426-.24-1.426-.483-2.879-.43.376-.859.752-1.301 1.139-2.661 2.331-5.323 2.404-8.749 2.335-3.083-.23-5.014-.933-7.094-3.234-1.79-2.205-1.921-4.264-1.887-7.022.26-2.171 1.093-3.619 2.582-5.208 4.771-3.573 10.73-3.567 16.449-3.358-.137-.87-.279-1.74-.424-2.608-.079-.484-.157-.969-.238-1.467-.102-.396-.203-.793-.306-1.201-1.902-.942-4.216-.704-6.289-.479-1.532 1.048-1.833 1.615-2.419 3.357-2.554 0-5.108 0-7.74 0 0-3.187.462-4.339 2.419-6.715 5.262-5.028 14.607-4.627 20.469-.899zm-16.115 17.686c-.265 1.842-.262 2.897.665 4.527 1.27.749 1.27.749 2.441.88 2.92.042 4.595-.279 6.924-2.173 1.056-1.441 1.056-1.441.613-5.631-.837-.01-1.672-.018-2.51-.024-.348-.003-.688-.005-1.028-.006-3.012-.037-5.147-.117-7.105 2.427z" fill="#002147"/><path d="m221.051 346.456h8.224c.239 12.583.239 12.583.483 25.42 4.611-5.983 4.611-5.983 9.192-11.99.964-.218.964-.218 2.045-.188.583.01.583.01 1.177.019.605.025.605.025 1.223.049.408.009.817.017 1.238.026 1.009.024 2.016.058 3.024.094-.832 1.925-2.137 3.475-3.446 5.096-.354.441-.354.441-.715.892-.707.883-1.417 1.765-2.128 2.646-.404.502-.807 1.004-1.211 1.505-.884 1.099-1.77 2.195-2.658 3.29.629 1.313 1.326 2.489 2.178 3.671.237.33.474.66.718 1 .377.523.377.523.762 1.055.522.729 1.044 1.457 1.567 2.186.259.363.519.726.786 1.099 1.108 1.547 2.207 3.101 3.3 4.659.352.5.704.999 1.066 1.514.749 1.124.749 1.124.749 1.604-3.221.544-6.516 1.056-9.675 0-2.527-2.025-4.066-4.96-5.536-7.786-1.106-1.949-2.405-3.784-3.656-5.644-.159 4.432-.319 8.863-.483 13.43-2.714 0-5.428 0-8.224 0 0-14.403 0-28.807 0-43.647z" fill="#002147"/><path d="m128.171 288.901h8.224c.239 12.583.239 12.583.484 25.42 4.611-5.983 4.611-5.983 9.19-11.991.965-.218.965-.218 2.048-.187.582.009.582.009 1.176.018.605.024.605.024 1.221.05.409.008.818.017 1.239.025 1.008.023 2.016.057 3.024.094-.831 1.926-2.137 3.475-3.447 5.097-.352.441-.352.441-.713.892-.707.882-1.418 1.764-2.129 2.645-.403.501-.807 1.004-1.211 1.506-.884 1.098-1.771 2.194-2.659 3.29.631 1.312 1.328 2.489 2.179 3.67.237.331.473.661.718 1.001.377.521.377.521.762 1.054.522.729 1.045 1.458 1.566 2.187.261.363.52.724.788 1.097 1.107 1.548 2.207 3.102 3.3 4.66.351.5.703.999 1.066 1.514.748 1.125.748 1.125.748 1.605-3.221.543-6.516 1.055-9.676 0-2.525-2.027-4.066-4.961-5.535-7.788-1.105-1.948-2.404-3.783-3.655-5.643-.16 4.432-.319 8.864-.484 13.431-2.714 0-5.428 0-8.224 0 0-14.404 0-28.807 0-43.647z" fill="#002147"/><path d="m308.73 360.315c2.424 1.518 3.761 3.487 4.516 6.208.403 2.082.318 4.185.295 6.296-.001.496-.002.992-.003 1.502-.006 1.573-.018 3.146-.031 4.72-.004 1.071-.009 2.142-.013 3.213-.01 2.616-.027 5.232-.047 7.849-2.714 0-5.428 0-8.224 0-.015-.922-.015-.922-.028-1.863-.037-2.282-.081-4.562-.125-6.843-.019-.988-.036-1.975-.051-2.962-.022-1.419-.051-2.839-.079-4.258-.006-.441-.011-.882-.017-1.336-.01-.413-.019-.826-.029-1.251-.007-.362-.013-.725-.02-1.098-.154-1.163-.483-1.936-1.102-2.932-2.386-1.392-5.064-1.249-7.679-.629-1.408.862-1.525 1.448-1.996 3.027-.158 1.546-.18 3.089-.2 4.641-.01.443-.019.887-.029 1.345-.029 1.412-.051 2.824-.073 4.236-.018.96-.038 1.92-.057 2.88-.046 2.347-.087 4.695-.125 7.043-2.874 0-5.746 0-8.708 0 0-9.971 0-19.943 0-30.217h8.708c.16 1.266.32 2.532.484 3.837.36-.365.718-.732 1.088-1.109 3.727-3.611 8.655-4.45 13.545-2.299z" fill="#002147"/><path d="m357.952 303.289c2.615 2.535 3.927 5.142 4.035 8.73 0 .957-.009 1.913-.024 2.869-.001.507-.003 1.013-.006 1.535-.007 1.608-.026 3.215-.044 4.822-.008 1.095-.014 2.189-.021 3.283-.015 2.673-.04 5.345-.07 8.02-2.714 0-5.428 0-8.224 0-.007-.6-.014-1.197-.021-1.812-.028-2.222-.066-4.443-.105-6.664-.017-.961-.031-1.921-.041-2.882-.017-1.382-.041-2.764-.069-4.147-.003-.428-.007-.856-.009-1.297-.055-2.301-.188-3.871-1.69-5.742-1.467-1.131-3.028-1.13-4.854-1.083-1.395.182-2.279.704-3.37 1.563-.993 1.477-1.092 1.82-1.121 3.495-.01.413-.02.826-.029 1.252-.008.664-.008.664-.017 1.344-.01.455-.019.911-.029 1.381-.029 1.456-.051 2.912-.073 4.369-.018.987-.038 1.974-.057 2.961-.046 2.421-.087 4.84-.125 7.262-2.874 0-5.746 0-8.708 0 0-9.972 0-19.943 0-30.218h8.708c.16 1.109.32 2.217.484 3.358.211-.197.422-.394.639-.597 4.068-3.648 9.916-4.76 14.841-1.802z" fill="#002147"/><path d="m141.232 359.886h8.224c.007.578.014 1.156.022 1.752.027 2.155.065 4.31.105 6.465.016.931.029 1.861.04 2.793.017 1.342.042 2.683.069 4.025.003.413.006.826.01 1.251.063 2.587.427 4.453 1.689 6.736 1.81 1.197 2.69 1.139 4.837.959 2.025-.772 3.314-1.459 4.354-3.357.232-1.564.237-3.12.248-4.699.008-.455.018-.91.026-1.379.026-1.451.042-2.902.059-4.354.016-.984.032-1.97.05-2.954.041-2.413.074-4.825.101-7.238h8.707v30.217c-2.873 0-5.746 0-8.707 0-.24-1.663-.24-1.663-.484-3.358-.222.197-.444.393-.672.596-.297.259-.594.517-.9.783-.292.256-.584.512-.885.775-2.82 2.195-5.686 1.943-9.152 1.683-2.184-.41-3.604-1.186-5.231-2.728-2.378-3.568-2.717-6.558-2.652-10.731.002-.495.005-.99.007-1.5.008-1.568.026-3.137.045-4.706.007-1.068.014-2.137.019-3.206.016-2.608.041-5.217.071-7.825z" fill="#002147"/><path d="m285.874 406.41h10.158c.587 1.068.587 1.068 1.185 2.156.522.95 1.044 1.9 1.567 2.85.256.467.513.934.777 1.416 1.552 2.822 3.114 5.639 4.695 8.447 1.254-1.549 2.159-3.174 3.074-4.939.148-.285.297-.57.449-.863.47-.903.938-1.808 1.405-2.712.32-.615.639-1.23.959-1.846.78-1.501 1.559-3.005 2.337-4.509h9.19c-1.16 2.878-2.625 5.52-4.111 8.244-.306.571-.61 1.142-.914 1.713-1.298 2.425-2.578 4.812-4.22 7.029-5.064 7.078-3.965 15.946-3.816 24.262-3.032 0-6.066 0-9.19 0 .043-1.182.086-2.364.132-3.582.226-9.783-.419-16.704-6.434-24.824-1.668-2.325-3.077-4.801-4.523-7.266-.41-.678-.41-.678-.828-1.369-.374-.619-.374-.619-.755-1.25-.221-.364-.44-.728-.668-1.103-.469-.895-.469-.895-.469-1.854z" fill="#002147"/><path d="m282.971 291.299h31.927v7.674c-3.672 0-7.343 0-11.126 0v33.575c-3.193 0-6.385 0-9.675 0 0-11.238 0-22.476 0-34.054-3.671 0-7.344 0-11.126 0 0-2.374 0-4.749 0-7.195z" fill="#002147"/><g fill="#002147"><path d="m262.654 406.41h9.674v34.054h16.932v7.194c-8.78 0-17.561 0-26.606 0 0-13.612 0-27.224 0-41.248z" fill="#002147"/><path d="m151.875 406.41h9.675v41.248c-3.193 0-6.386 0-9.675 0 0-13.612 0-27.224 0-41.248z" fill="#002147"/><path d="m57.06 348.854h9.675v41.249c-3.193 0-6.385 0-9.675 0 0-13.612 0-27.225 0-41.249z" fill="#002147"/></g><path d="m73.991 346.456h8.707v43.647c-2.873 0-5.746 0-8.707 0 0-14.403 0-28.807 0-43.647z" fill="#002147"/><path d="m192.51 288.901h8.224v43.647c-2.714 0-5.428 0-8.224 0 0-14.404 0-28.807 0-43.647z" fill="#002147"/><path d="m406.81 359.886h8.708v30.217c-2.874 0-5.747 0-8.708 0 0-9.971 0-19.943 0-30.217z" fill="#002147"/><path d="m318.284 302.33h8.708v30.218c-2.874 0-5.747 0-8.708 0 0-9.972 0-19.943 0-30.218z" fill="#002147"/><path d="m439.706 302.33h8.224v30.218c-2.714 0-5.428 0-8.224 0 0-9.972 0-19.943 0-30.218z" fill="#002147"/><path d="m444.95 289.152c1.793.391 2.482 1.121 3.463 2.626.335 1.362.344 2.477 0 3.838-1.16 1.589-1.969 2.245-3.84 2.877-1.842 0-2.838-.464-4.384-1.439-1.192-1.773-1.346-3.219-.967-5.276 1.524-2.34 3.044-2.795 5.728-2.626z" fill="#002147"/><path d="m412.055 346.709c1.045.227 1.045.227 2.526 1.156 1.095 1.715 1.297 2.781 1.166 4.782-.229 1.004-.229 1.004-1.166 2.233-2.007.934-3.658 1.13-5.836.689-1.475-.955-2.222-1.6-2.646-3.328-.139-1.862.127-2.753 1.166-4.346 1.727-1.118 2.761-1.317 4.79-1.186z" fill="#002147"/><path d="m323.529 289.154c1.045.226 1.045.226 2.526 1.155 1.095 1.716 1.297 2.781 1.166 4.782-.229 1.004-.229 1.004-1.166 2.233-2.007.934-3.658 1.13-5.836.689-1.476-.956-2.222-1.601-2.646-3.327-.14-1.863.127-2.754 1.166-4.347 1.727-1.118 2.76-1.316 4.79-1.185z" fill="#002147"/></svg>